<?xml version="1.0" encoding="UTF-8"?>
<!-- Generator: visioncortex VTracer 0.6.2 -->
<svg version="1.1" xmlns="http://www.w3.org/2000/svg" width="1280" height="1280">
<path d="M0 0 C422.4 0 844.8 0 1280 0 C1280 422.4 1280 844.8 1280 1280 C857.6 1280 435.2 1280 0 1280 C0 857.6 0 435.2 0 0 Z " fill="#FBFDFD" transform="translate(0,0)"/>
<path d="M0 0 C18.0971823 14.15816521 20.87410141 38.07007972 23.8125 59.1875 C24.1257545 61.34978336 24.44019977 63.51189456 24.75585938 65.67382812 C25.32297885 69.60476186 25.89004087 73.5356564 26.43676758 77.46948242 C26.60067741 78.64071907 26.60067741 78.64071907 26.76789856 79.83561707 C27 82 27 82 27 86 C8.11624191 88.9335769 -10.77964419 91.78079051 -29.68457031 94.57421875 C-32.76435606 95.02952163 -35.84374768 95.48737444 -38.92285156 95.94726562 C-42.7129266 96.51332702 -46.50360648 97.07515412 -50.29476166 97.63393402 C-51.71906005 97.84456732 -53.14314359 98.05665929 -54.56699371 98.27030182 C-56.54047627 98.56610523 -58.51485191 98.8559316 -60.48925781 99.14550781 C-61.60552551 99.31109192 -62.72179321 99.47667603 -63.87188721 99.64727783 C-71.89589072 100.55205464 -71.89589072 100.55205464 -75 99 C-75.5062561 97.09353638 -75.5062561 97.09353638 -75.86962891 94.56298828 C-76.00962311 93.61755157 -76.14961731 92.67211487 -76.29385376 91.69802856 C-76.43664764 90.66588226 -76.57944153 89.63373596 -76.7265625 88.5703125 C-76.87910492 87.51020966 -77.03164734 86.45010681 -77.18881226 85.35787964 C-77.51083577 83.10379779 -77.82829291 80.8490597 -78.14160156 78.59375 C-78.61837069 75.17257035 -79.11270161 71.75427725 -79.609375 68.3359375 C-79.92034001 66.14338054 -80.2302675 63.95067613 -80.5390625 61.7578125 C-80.68590485 60.74590851 -80.83274719 59.73400452 -80.98403931 58.69143677 C-83.50299301 40.28381496 -80.85566603 24.13448544 -70.375 8.58984375 C-53.62914752 -12.3022174 -21.0713139 -15.01019145 0 0 Z " fill="#040807" transform="translate(330,609)"/>
<path d="M0 0 C10.56578947 3.56578947 10.56578947 3.56578947 12 5 C12.09432985 7.20867831 12.11742431 9.42041521 12.11352539 11.63110352 C12.11367142 12.32375305 12.11381744 13.01640259 12.1139679 13.7300415 C12.11326874 16.02969446 12.10547628 18.32926737 12.09765625 20.62890625 C12.09579208 22.21931412 12.09436817 23.80972257 12.09336853 25.40013123 C12.08954329 29.5939593 12.07971295 33.78775295 12.06866455 37.98156738 C12.05845057 42.25788914 12.05387094 46.53421644 12.04882812 50.81054688 C12.03809069 59.20704708 12.02101419 67.60351926 12 76 C15.99645267 72.06851942 15.99645267 72.06851942 19.55078125 67.75 C19.99373535 67.1523584 20.43668945 66.5547168 20.89306641 65.93896484 C21.59568604 64.97917725 21.59568604 64.97917725 22.3125 64 C23.36755135 62.57482578 24.4235943 61.15038528 25.48046875 59.7265625 C26.04427246 58.96633789 26.60807617 58.20611328 27.18896484 57.42285156 C30.46209129 53.04397493 33.7997379 48.71432414 37.125 44.375 C43.25136562 36.36438228 49.22156799 28.26482463 55 20 C60.57537787 20.55877952 65.57423404 21.57957927 70.875 23.375 C71.53757812 23.58382812 72.20015625 23.79265625 72.8828125 24.0078125 C76.50848032 25.21636844 77.81572854 25.72359281 80 29 C80.23047829 31.0089674 80.23047829 31.0089674 80.20254517 33.3469696 C80.19688034 34.23457977 80.19121552 35.12218994 80.18537903 36.03669739 C80.16883774 37.00773911 80.15229645 37.97878082 80.13525391 38.97924805 C80.12106163 40.51609253 80.12106163 40.51609253 80.10658264 42.08398438 C80.07285534 45.47674211 80.02475315 48.86913814 79.9765625 52.26171875 C79.95040052 54.61154734 79.92513311 56.96138605 79.90072632 59.31123352 C79.83402508 65.50095403 79.75514291 71.69046223 79.67376709 77.88000488 C79.59289618 84.1940088 79.52348545 90.50813739 79.453125 96.82226562 C79.31333194 109.21499323 79.16067681 121.60752681 79 134 C73.94104415 133.33491443 69.49286134 132.30192725 64.6875 130.5625 C63.47449219 130.13066406 62.26148438 129.69882812 61.01171875 129.25390625 C58 128 58 128 56 126 C55.7215271 123.10202026 55.7215271 123.10202026 55.68115234 119.34716797 C55.66608391 118.32260498 55.66608391 118.32260498 55.65071106 117.27734375 C55.6197763 115.01563371 55.60281577 112.75404256 55.5859375 110.4921875 C55.56723408 108.92561818 55.5476613 107.35905901 55.5272522 105.79251099 C55.47583748 101.66617817 55.43626197 97.53981266 55.39910889 93.41333008 C55.35912759 89.2038559 55.30800854 84.99451882 55.2578125 80.78515625 C55.16094272 72.52353101 55.07657355 64.26183815 55 56 C53.56345258 57.7491349 52.12784324 59.49904027 50.69262695 61.24926758 C49.89307083 62.22366287 49.09351471 63.19805817 48.26972961 64.20198059 C45.48568032 67.63402991 42.81514524 71.13524328 40.1875 74.6875 C39.16279977 76.06252933 38.13805899 77.43752843 37.11328125 78.8125 C36.59975098 79.5034375 36.0862207 80.194375 35.55712891 80.90625 C33.0041108 84.33909467 30.44048059 87.76396317 27.875 91.1875 C27.13817993 92.17109497 27.13817993 92.17109497 26.38647461 93.17456055 C21.64580529 99.49204676 16.83425941 105.75396571 12 112 C7.62665437 111.25560074 3.50235818 109.92235729 -0.6875 108.5 C-1.70166992 108.16162109 -1.70166992 108.16162109 -2.73632812 107.81640625 C-7.7181326 106.1409337 -7.7181326 106.1409337 -10 105 C-10 81.24 -10 57.48 -10 33 C-12.67682699 35.67682699 -14.78777249 37.89548948 -16.9609375 40.87890625 C-17.5077417 41.6255957 -18.0545459 42.37228516 -18.61791992 43.14160156 C-19.19775635 43.94049805 -19.77759277 44.73939453 -20.375 45.5625 C-21.62880595 47.27741709 -22.88271514 48.9922587 -24.13671875 50.70703125 C-24.77657715 51.58439941 -25.41643555 52.46176758 -26.07568359 53.36572266 C-29.09883233 57.50423761 -32.14401467 61.62643206 -35.1875 65.75 C-41.13859221 73.82338127 -47.07351937 81.90853972 -53 90 C-60.8859085 88.83107109 -67.74818885 86.26456103 -75 83 C-71.02469036 76.92847179 -66.88847814 71.01361572 -62.5625 65.1875 C-61.96050781 64.37345703 -61.35851562 63.55941406 -60.73828125 62.72070312 C-55.72955931 55.95789365 -50.67830063 49.22713571 -45.62084961 42.50073242 C-40.66261623 35.90070845 -35.75697319 29.26322971 -30.86962891 22.6105957 C-26.90968844 17.22304944 -22.91043062 11.86840765 -18.8671875 6.54296875 C-17.47820801 4.65128329 -16.16057901 2.70679608 -14.8828125 0.73828125 C-10.84261125 -5.1376131 -5.92048462 -1.83944616 0 0 Z " fill="#040807" transform="translate(513,870)"/>
<path d="M0 0 C0.99 0.495 0.99 0.495 2 1 C2.55285645 2.75119019 2.55285645 2.75119019 2.98632812 5.07763672 C3.15446014 5.95585083 3.32259216 6.83406494 3.49581909 7.7388916 C3.67251129 8.70935425 3.84920349 9.67981689 4.03125 10.6796875 C4.22349152 11.6951062 4.41573303 12.7105249 4.61380005 13.75671387 C5.25047589 17.12803499 5.87520022 20.50145949 6.5 23.875 C7.16253002 27.40335756 7.8280077 30.93115045 8.49380493 34.45889282 C8.95503368 36.90318973 9.41528342 39.34767155 9.87460327 41.79232788 C11.49586818 50.40261713 13.17204129 59.00082357 14.8828125 67.59375 C15.11438049 68.7594754 15.34594849 69.92520081 15.58453369 71.12625122 C16.48497304 75.65648974 17.38600827 80.18657866 18.29663086 84.71478271 C18.92411695 87.8375266 19.54471077 90.96157178 20.1640625 94.0859375 C20.3510672 95.00556274 20.5380719 95.92518799 20.73074341 96.87268066 C22.50144422 105.86446278 22.50144422 105.86446278 22 110 C20.68652344 111.67504883 20.68652344 111.67504883 18.859375 112.95703125 C18.20066406 113.42947266 17.54195312 113.90191406 16.86328125 114.38867188 C16.16589844 114.85853516 15.46851563 115.32839844 14.75 115.8125 C14.06808594 116.30169922 13.38617187 116.79089844 12.68359375 117.29492188 C6.56368362 121.59074229 6.56368362 121.59074229 3 122 C1.03979492 121.24658203 1.03979492 121.24658203 -1.01953125 120.0078125 C-1.78644287 119.5547876 -2.55335449 119.1017627 -3.34350586 118.63500977 C-4.56565796 117.88755493 -4.56565796 117.88755493 -5.8125 117.125 C-6.66271729 116.61831787 -7.51293457 116.11163574 -8.38891602 115.58959961 C-10.9327065 114.07067304 -13.46664519 112.53624841 -16 111 C-17.29344472 110.22648152 -18.58763496 109.4542073 -19.8828125 108.68359375 C-22.93191668 106.86677002 -25.97168451 105.03488913 -29.00976562 103.19970703 C-31.13413216 101.91914555 -33.26196507 100.64450501 -35.390625 99.37109375 C-42.96832124 94.83657016 -50.53652959 90.28712895 -58.08203125 85.69921875 C-58.69475388 85.32673004 -59.3074765 84.95424133 -59.93876648 84.57046509 C-62.96177271 82.73228598 -65.98385582 80.89261178 -69.00463867 79.05078125 C-76.28993897 74.61675078 -83.61691366 70.26908024 -91 66 C-84.20209939 83.87425391 -77.20361594 101.66625312 -70.15454102 119.44262695 C-68.43585016 123.77714859 -66.72003238 128.11279377 -65.00738525 132.44970703 C-64.32487015 134.17755987 -63.64153608 135.90508939 -62.9574585 137.63232422 C-61.96161629 140.14934875 -60.97040693 142.66814857 -59.98046875 145.1875 C-59.6786116 145.94836914 -59.37675446 146.70923828 -59.06575012 147.49316406 C-57 152.77113828 -57 152.77113828 -57 155 C-59.1875 155.9375 -61.375 156.875 -63.5625 157.8125 C-64.17158203 158.07353516 -64.78066406 158.33457031 -65.40820312 158.60351562 C-69.60546875 160.40234375 -73.80273438 162.20117188 -78 164 C-78 163.01 -78 162.02 -78 161 C-78.66 161 -79.32 161 -80 161 C-86.3048854 145.29175247 -92.60426659 129.58162432 -98.75390625 113.81176758 C-101.03512341 107.96780165 -103.34206697 102.13740817 -105.70805359 96.32731628 C-106.94781733 93.27967692 -108.17738154 90.22796765 -109.40628052 87.17593384 C-110.00751799 85.69082969 -110.61365763 84.20770021 -111.224823 82.72665405 C-112.07508808 80.66501321 -112.90833687 78.59723162 -113.73828125 76.52734375 C-114.22337158 75.33874756 -114.70846191 74.15015137 -115.20825195 72.92553711 C-115.60016724 71.47739624 -115.60016724 71.47739624 -116 70 C-113.18140647 65.77210971 -109.75249546 64.97259802 -105.125 63.1875 C-104.30902344 62.85041016 -103.49304688 62.51332031 -102.65234375 62.16601562 C-101.46705078 61.70291992 -101.46705078 61.70291992 -100.2578125 61.23046875 C-99.5373877 60.94582764 -98.81696289 60.66118652 -98.07470703 60.36791992 C-95.40172521 59.89390444 -94.31029328 60.67970373 -92 62 C-86.35143912 61.86641917 -82.38670076 57.7772209 -78.171875 54.41796875 C-73.71609953 51.03739127 -73.71609953 51.03739127 -70.53125 50.87109375 C-66.12106361 52.83798243 -62.37401861 55.77920285 -58.52734375 58.66992188 C-54.9038478 61.39938185 -54.9038478 61.39938185 -50.58984375 61.67578125 C-49.30787109 60.84626953 -49.30787109 60.84626953 -48 60 C-47.0402124 59.38547974 -47.0402124 59.38547974 -46.06103516 58.75854492 C-43.69716395 57.21418036 -41.37903534 55.61444303 -39.0625 54 C-38.22871826 53.42419189 -37.39493652 52.84838379 -36.53588867 52.25512695 C-29.30277133 47.24641294 -22.13073971 42.15320994 -15 37 C-15.45735807 31.23488116 -16.15649891 25.71230717 -17.59765625 20.10546875 C-18.0956272 17.49958195 -18.43009009 15.64607805 -18 13 C-15.5859375 10.68359375 -15.5859375 10.68359375 -12.375 8.4375 C-11.33085938 7.69371094 -10.28671875 6.94992187 -9.2109375 6.18359375 C-6.15237466 4.10362219 -3.08393692 2.04206634 0 0 Z " fill="#040807" transform="translate(852,813)"/>
<path d="M0 0 C7.92417845 7.57458234 13.70664944 17.55212032 14.3828125 28.609375 C14.37615973 30.21934504 14.318448 31.82897189 14.25 33.4375 C14.58 34.0975 14.91 34.7575 15.25 35.4375 C15.848125 34.921875 16.44625 34.40625 17.0625 33.875 C17.784375 33.400625 18.50625 32.92625 19.25 32.4375 C22.66255379 33.57501793 22.94510839 34.09047099 24.73046875 37.03515625 C25.17197266 37.75380859 25.61347656 38.47246094 26.06835938 39.21289062 C26.52017578 39.96763672 26.97199219 40.72238281 27.4375 41.5 C27.90091797 42.25861328 28.36433594 43.01722656 28.84179688 43.79882812 C29.98566706 45.67383183 31.12128255 47.55334922 32.25 49.4375 C28.52022951 53.64155463 23.9617043 56.43188437 19.2890625 59.46875 C18.39853683 60.05313339 17.50801117 60.63751678 16.59049988 61.23960876 C13.68808542 63.1431439 10.78151465 65.04023277 7.875 66.9375 C4.87302627 68.90466336 1.872212 70.87358655 -1.12852478 72.84263611 C-3.13522748 74.1592965 -5.1422776 75.47542753 -7.14967346 76.79103088 C-15.77327827 82.44446488 -24.36409391 88.14580288 -32.9375 93.875 C-34.13264813 94.6731795 -35.32779781 95.47135666 -36.52294922 96.26953125 C-37.08357056 96.64433624 -37.64419189 97.01914124 -38.22180176 97.40530396 C-39.78596886 98.44968908 -41.35264467 99.490314 -42.91943359 100.53076172 C-44.76275058 101.77246481 -46.58982236 103.03874526 -48.39697266 104.33251953 C-49.19022949 104.89438965 -49.98348633 105.45625977 -50.80078125 106.03515625 C-51.47407471 106.52636963 -52.14736816 107.01758301 -52.84106445 107.52368164 C-54.75 108.4375 -54.75 108.4375 -56.87133789 108.19506836 C-61.42143241 106.36024792 -64.01221508 101.88378096 -66.625 97.9375 C-67.26179688 96.9990625 -67.89859375 96.060625 -68.5546875 95.09375 C-69.75 92.4375 -69.75 92.4375 -69.41015625 90.390625 C-66.85918585 87.38948335 -63.68685059 85.6649004 -60.3125 83.6875 C-53.51643547 79.58563343 -47.07925429 75.23807847 -40.75 70.4375 C-41.36746094 70.0971875 -41.98492187 69.756875 -42.62109375 69.40625 C-54.9308206 62.36141393 -62.07555179 55.22729394 -66.38671875 41.39453125 C-68.41262503 30.48077808 -65.74928543 20.97118222 -60 11.6875 C-52.66991226 1.49069478 -40.40555559 -6.35698536 -27.87890625 -8.41015625 C-17.91064639 -9.12348127 -7.96413707 -6.1318413 0 0 Z " fill="#040807" transform="translate(385.75,750.5625)"/>
<path d="M0 0 C8.11176224 6.27066565 14.23085045 17.65754132 15.80078125 27.71875 C16.68291145 40.21962256 16.76368574 51.01097454 8.42578125 61.03125 C0.76225062 69.10068797 -7.13308524 74.11130044 -18.36328125 74.95703125 C-19.50539063 74.98152344 -20.6475 75.00601563 -21.82421875 75.03125 C-23.51417969 75.08732422 -23.51417969 75.08732422 -25.23828125 75.14453125 C-30.59123528 74.56911509 -35.22840209 72.71917303 -40.19921875 70.71875 C-40.05299072 71.3893042 -39.9067627 72.0598584 -39.75610352 72.75073242 C-39.09086831 75.80247583 -38.42628719 78.85436132 -37.76171875 81.90625 C-37.53162109 82.96134766 -37.30152344 84.01644531 -37.06445312 85.10351562 C-36.84208984 86.12509766 -36.61972656 87.14667969 -36.390625 88.19921875 C-36.18638916 89.13660889 -35.98215332 90.07399902 -35.77172852 91.03979492 C-35.48833618 92.36587769 -35.48833618 92.36587769 -35.19921875 93.71875 C-35.01093506 94.57895752 -34.82265137 95.43916504 -34.62866211 96.32543945 C-34.06362598 99.47441569 -34.13664339 102.52740643 -34.19921875 105.71875 C-49.66433503 109.41642442 -49.66433503 109.41642442 -54.19921875 109.71875 C-56.60764111 107.31032764 -56.75511023 106.00252758 -57.44335938 102.69921875 C-57.66890503 101.63364746 -57.89445068 100.56807617 -58.12683105 99.47021484 C-58.36728149 98.29410645 -58.60773193 97.11799805 -58.85546875 95.90625 C-59.1136438 94.67084473 -59.37181885 93.43543945 -59.63781738 92.16259766 C-60.35158362 88.74095091 -61.05438848 85.31713697 -61.7543335 81.89263916 C-62.20292413 79.70064399 -62.65409604 77.50919428 -63.10595703 75.31787109 C-64.85348873 66.83617915 -66.57677273 58.34993679 -68.27110291 49.85745239 C-69.07228592 45.84229201 -69.87901917 41.828417 -70.69824219 37.81689453 C-71.50801401 33.85120584 -72.3047509 29.88311077 -73.09205627 25.91290283 C-73.39050965 24.41925232 -73.69353564 22.92650756 -74.00132751 21.43475342 C-74.42556326 19.37414229 -74.83293686 17.31087118 -75.23632812 15.24609375 C-75.47138062 14.07812256 -75.70643311 12.91015137 -75.9486084 11.70678711 C-76.21349114 8.54857969 -76.08031696 7.23938076 -74.19921875 4.71875 C-71.37109375 3.671875 -71.37109375 3.671875 -67.94921875 2.96875 C-66.27085937 2.60523438 -66.27085937 2.60523438 -64.55859375 2.234375 C-61.37389395 1.74556061 -58.41441108 1.62131993 -55.19921875 1.71875 C-54.53921875 3.69875 -53.87921875 5.67875 -53.19921875 7.71875 C-52.73773437 7.27144531 -52.27625 6.82414063 -51.80078125 6.36328125 C-36.79236076 -7.54768557 -18.06108951 -10.52226884 0 0 Z " fill="#040807" transform="translate(604.19921875,244.28125)"/>
<path d="M0 0 C3.17615133 0.41312235 4.79457174 1.41518452 7.04931641 3.64526367 C7.90138168 4.47830269 7.90138168 4.47830269 8.7706604 5.32817078 C9.37485809 5.93530411 9.97905579 6.54243744 10.6015625 7.16796875 C11.23806732 7.79923172 11.87457214 8.43049469 12.53036499 9.08088684 C13.88063374 10.4247279 15.22702562 11.77247385 16.56982422 13.1237793 C18.58474574 15.14707837 20.61731807 17.15124662 22.65234375 19.15429688 C35.55233086 31.98294436 47.8836771 45.049842 48.4375 64.1875 C48.00268242 75.83805334 44.43320161 81.93643548 36 90 C27.04432088 97.86866734 18.50526577 98.664848 6.9453125 98.13916016 C-7.37058559 97.115056 -18.04664102 85.43245998 -27.21289062 75.55224609 C-27.90576172 74.82215332 -28.59863281 74.09206055 -29.3125 73.33984375 C-29.92738281 72.67331787 -30.54226563 72.00679199 -31.17578125 71.32006836 C-32.89339938 69.79318446 -32.89339938 69.79318446 -34.98730469 70.06640625 C-37.47779884 71.22162819 -38.97225614 72.63287524 -40.890625 74.59765625 C-41.59960938 75.31630859 -42.30859375 76.03496094 -43.0390625 76.77539062 C-43.76867187 77.53013672 -44.49828125 78.28488281 -45.25 79.0625 C-45.99507812 79.82111328 -46.74015625 80.57972656 -47.5078125 81.36132812 C-49.34546694 83.23432207 -51.17575724 85.11395611 -53 87 C-57.93371556 85.21666631 -60.73367752 82.78387102 -64.375 79.125 C-64.93316406 78.59519531 -65.49132812 78.06539063 -66.06640625 77.51953125 C-67.6484375 75.9453125 -67.6484375 75.9453125 -70 73 C-69.70462653 69.79651818 -68.5115616 68.13365126 -66.28715515 65.89274597 C-65.7109845 65.30522552 -65.13481384 64.71770508 -64.54118347 64.11238098 C-63.90586197 63.47999008 -63.27054047 62.84759918 -62.6159668 62.19604492 C-61.94924957 61.52085815 -61.28253235 60.84567139 -60.59561157 60.15002441 C-58.38794566 57.91894466 -56.16923434 55.69925592 -53.94921875 53.48046875 C-52.4129362 51.93708883 -50.87695481 50.39340907 -49.34126282 48.84944153 C-46.1207931 45.61551796 -42.89443506 42.38760505 -39.66430664 39.16333008 C-35.5176699 35.02259907 -31.38959538 30.8638897 -27.26616192 26.70006847 C-24.09984621 23.50796033 -20.92219034 20.32733467 -17.74112892 17.14992714 C-16.21369476 15.62079472 -14.69026321 14.0876536 -13.17087364 12.55052757 C-11.04965202 10.40727834 -8.91328965 8.28037478 -6.7722168 6.15698242 C-6.14296799 5.51447037 -5.51371918 4.87195831 -4.86540222 4.2099762 C-3.09379578 2.47233582 -3.09379578 2.47233582 0 0 Z " fill="#040807" transform="translate(889,299)"/>
<path d="M0 0 C8.28378914 7.5307174 12.96964878 18.14621624 13.6875 29.25 C13.81092722 43.33833589 10.22505079 55.70140143 0.6875 66.25 C-8.22603899 74.61218606 -17.15303155 77.63838639 -29.3203125 77.45703125 C-41.5200558 76.61292368 -51.35801238 71.74785937 -59.75 62.875 C-67.85178503 53.14621716 -69.2239867 42.61284078 -68.3125 30.25 C-65.69663988 17.17069939 -59.84948477 5.63011406 -49.1015625 -2.40234375 C-33.31892719 -12.84748589 -14.91982355 -11.29067728 0 0 Z " fill="#040807" transform="translate(988.3125,651.75)"/>
<path d="M0 0 C8.75525605 6.78387389 14.16340973 17.21017076 16.70703125 27.80859375 C17.8606131 41.07478502 14.86006581 51.24065148 6.43359375 61.546875 C-2.2517411 71.10074333 -13.86334575 75.68495985 -26.51171875 76.92578125 C-39.90604877 77.35024945 -50.08980778 72.29533519 -59.7421875 63.2734375 C-66.83335253 55.2913621 -70.46527839 44.97630465 -69.98046875 34.37109375 C-68.61616226 23.27060001 -63.31605276 12.48697536 -54.48925781 5.44384766 C-37.75671846 -6.85152033 -18.45185494 -11.88962737 0 0 Z " fill="#040807" transform="translate(512.04296875,276.31640625)"/>
<path d="M0 0 C0.80105667 -0.00508575 1.60211334 -0.01017151 2.42744446 -0.01541138 C7.86605367 -0.00504008 7.86605367 -0.00504008 8.98828125 1.1171875 C9.14514374 2.67667292 9.23904764 4.24261418 9.3046875 5.80859375 C9.34658203 6.75283203 9.38847656 7.69707031 9.43164062 8.66992188 C9.47095703 9.66314453 9.51027344 10.65636719 9.55078125 11.6796875 C9.59396484 12.67677734 9.63714844 13.67386719 9.68164062 14.70117188 C9.78808423 17.173029 9.89010053 19.6449906 9.98828125 22.1171875 C7.15599929 23.06128149 5.18320133 23.29238693 2.234375 23.3984375 C1.29658203 23.43582031 0.35878906 23.47320313 -0.60742188 23.51171875 C-2.07598633 23.56392578 -2.07598633 23.56392578 -3.57421875 23.6171875 C-10.75644999 23.87977415 -17.8682057 24.31228462 -25.01171875 25.1171875 C-23.5823468 28.92884603 -21.82882295 32.47083397 -19.9140625 36.0546875 C-16.54259029 43.7609097 -16.44153565 56.60397247 -19.07421875 64.6796875 C-23.32257645 72.21709632 -28.78635473 77.95888497 -36.88671875 81.3046875 C-44.51149368 83.28712898 -52.36481753 83.39821201 -60.19921875 83.6796875 C-61.89679321 83.7422876 -61.89679321 83.7422876 -63.62866211 83.80615234 C-71.11047679 84.06300719 -78.58800136 84.22056807 -86.07421875 84.2421875 C-86.96584717 84.24677979 -87.85747559 84.25137207 -88.77612305 84.25610352 C-94.88797766 84.24092859 -94.88797766 84.24092859 -96.01171875 83.1171875 C-96.89000425 78.72576002 -97.19694437 74.34044064 -97.38671875 69.8671875 C-97.43570313 68.85140625 -97.4846875 67.835625 -97.53515625 66.7890625 C-97.01171875 64.1171875 -97.01171875 64.1171875 -95.06616211 62.48925781 C-90.88431889 60.61075418 -87.15594823 60.59079037 -82.6171875 60.4921875 C-81.71100174 60.45915527 -80.80481598 60.42612305 -79.87117004 60.39208984 C-76.98078556 60.28715957 -74.09031496 60.20004488 -71.19921875 60.1171875 C-67.40032478 60.00771112 -63.60264004 59.88019312 -59.8046875 59.7421875 C-58.94296432 59.72333496 -58.08124115 59.70448242 -57.19340515 59.68505859 C-50.97491853 59.45769801 -44.86110305 58.66188517 -40.0390625 54.35546875 C-37.54670329 48.92534773 -38.02884021 41.43232022 -39.703125 35.78515625 C-41.86590073 31.63154094 -44.96771282 29.30769071 -49.01171875 27.1171875 C-51.91607554 26.20236364 -54.4383016 26.02028483 -57.47314453 26.11132812 C-58.34730011 26.1346521 -59.22145569 26.15797607 -60.12210083 26.18200684 C-61.05762787 26.21217896 -61.99315491 26.24235107 -62.95703125 26.2734375 C-63.92325409 26.29942017 -64.88947693 26.32540283 -65.88497925 26.35217285 C-68.9690644 26.43528655 -72.05287951 26.52542659 -75.13671875 26.6171875 C-79.20168376 26.73772908 -83.26675659 26.85140142 -87.33203125 26.9609375 C-88.27160675 26.99110962 -89.21118225 27.02128174 -90.17922974 27.05236816 C-91.48100662 27.08735413 -91.48100662 27.08735413 -92.80908203 27.12304688 C-93.57423126 27.14604858 -94.33938049 27.16905029 -95.12771606 27.19274902 C-97.01171875 27.1171875 -97.01171875 27.1171875 -99.01171875 26.1171875 C-99.01171875 19.5171875 -99.01171875 12.9171875 -99.01171875 6.1171875 C-95.21286834 4.2177623 -93.53199845 3.80487087 -89.44921875 3.5546875 C-88.28543701 3.4810498 -87.12165527 3.40741211 -85.92260742 3.33154297 C-84.63201416 3.26080566 -83.3414209 3.19006836 -82.01171875 3.1171875 C-80.63321537 3.03669005 -79.25471616 2.95612122 -77.8762207 2.87548828 C-63.99176415 2.0887861 -50.09469042 1.54132975 -36.19921875 0.9921875 C-34.53983276 0.92547852 -34.53983276 0.92547852 -32.84692383 0.85742188 C-21.89945624 0.42254137 -10.95700127 0.03995057 0 0 Z " fill="#040807" transform="translate(1029.01171875,548.8828125)"/>
<path d="M0 0 C1.89320462 2.01941826 2.63634368 4.0252003 3.5234375 6.625 C2.6778125 7.59179688 1.8321875 8.55859375 0.9609375 9.5546875 C-4.5553382 15.87879965 -10.04066712 22.20128883 -15.22265625 28.8046875 C-17.14558429 31.21084702 -19.09952711 33.5817663 -21.07421875 35.9453125 C-21.71560791 36.71504395 -22.35699707 37.48477539 -23.01782227 38.27783203 C-24.31003613 39.8262982 -25.6060237 41.37162398 -26.90600586 42.91357422 C-27.79171265 43.97729248 -27.79171265 43.97729248 -28.6953125 45.0625 C-29.23091797 45.70058594 -29.76652344 46.33867187 -30.31835938 46.99609375 C-31.66972267 48.56354668 -31.66972267 48.56354668 -31.4765625 50.625 C-27.2453923 52.7405851 -21.75402574 52.26236493 -17.28515625 51.01171875 C-10.9499937 48.19746846 -6.47208392 43.16251524 -3.1015625 37.1875 C-2.33356059 34.03869218 -2.08902003 30.94435851 -1.91796875 27.7109375 C-1.34338033 24.99562586 -0.79127454 24.1760468 1.5234375 22.625 C4.80859375 22.04296875 4.80859375 22.04296875 8.5859375 21.8125 C9.83503906 21.72355469 11.08414063 21.63460937 12.37109375 21.54296875 C15.5234375 21.625 15.5234375 21.625 17.5234375 23.625 C19.07518277 32.52046999 16.24749815 42.04550542 11.72265625 49.65234375 C9.76479412 52.42376412 7.71647517 55.03663296 5.5234375 57.625 C4.70552734 58.61113281 4.70552734 58.61113281 3.87109375 59.6171875 C-3.25852107 67.46150698 -12.9164335 72.67931681 -23.4765625 73.625 C-24.20230469 73.69460938 -24.92804688 73.76421875 -25.67578125 73.8359375 C-37.55747148 74.39055859 -46.56496154 70.18507854 -55.4765625 62.625 C-56.15847656 62.06683594 -56.84039062 61.50867188 -57.54296875 60.93359375 C-64.35805744 54.82503693 -67.95732144 46.12549863 -68.6796875 37.08203125 C-68.90902165 24.14376311 -64.29451705 12.59265181 -55.6015625 2.9375 C-38.90582162 -12.84808124 -18.3231084 -13.60703408 0 0 Z " fill="#040807" transform="translate(410.4765625,362.375)"/>
<path d="M0 0 C8.59884935 0.16200731 16.90083721 4.24155603 23.625 9.4375 C24.24761719 9.91703125 24.87023437 10.3965625 25.51171875 10.890625 C33.68795873 17.55620731 41.67493214 27.81236393 43.625 38.4375 C44.56234124 53.08153603 43.03807284 63.55831719 33.04296875 74.98828125 C25.08571877 83.0483713 16.01149229 86.41504445 4.75 86.875 C-7.21285725 86.48810294 -16.36718455 82.09625105 -25.375 74.4375 C-26.12910156 73.80714844 -26.88320313 73.17679688 -27.66015625 72.52734375 C-34.34155232 66.44540003 -38.82271923 58.08611077 -39.578125 48.9921875 C-39.80310678 36.1307291 -35.22658246 24.89953642 -26.375 15.4375 C-25.385 15.1075 -24.395 14.7775 -23.375 14.4375 C-21.16796875 15.88671875 -21.16796875 15.88671875 -18.5625 18.125 C-17.58667969 18.95386719 -16.61085938 19.78273438 -15.60546875 20.63671875 C-14.52825494 21.56986144 -13.45144672 22.50347251 -12.375 23.4375 C-11.22593557 24.42396407 -10.07618074 25.40962444 -8.92578125 26.39453125 C-7.14333641 27.92146197 -5.36152961 29.44908824 -3.58227539 30.97973633 C8.76064616 42.29047894 8.76064616 42.29047894 22.625 51.4375 C23.02097791 40.50410981 21.16273399 33.59152671 13.625 25.4375 C7.70093031 20.72242412 2.00103625 19.44989713 -5.375 18.4375 C-7.35619355 16.45630645 -6.56000411 12.70304936 -6.5625 10 C-6.57474609 9.30583984 -6.58699219 8.61167969 -6.59960938 7.89648438 C-6.60489842 6.07529099 -6.49669207 4.2546308 -6.375 2.4375 C-3.97782138 0.04032138 -3.29616497 0.0906712 0 0 Z " fill="#040807" transform="translate(422.375,812.5625)"/>
<path d="M0 0 C1.80791016 -0.00386719 1.80791016 -0.00386719 3.65234375 -0.0078125 C6.59472592 0.10678199 9.20739223 0.44237461 12.0625 1.125 C13.42829033 7.46325842 12.53329347 12.84047244 11.375 19.16796875 C11.19364502 20.21398758 11.01229004 21.26000641 10.82543945 22.33772278 C10.24790117 25.66451407 9.65655691 28.98862159 9.0625 32.3125 C8.46934057 35.64721924 7.87941719 38.98235282 7.29956055 42.31941223 C6.93923125 44.39201604 6.57117141 46.46329397 6.19458008 48.53300476 C5.94937622 49.94015495 5.94937622 49.94015495 5.69921875 51.37573242 C5.47818481 52.60981087 5.47818481 52.60981087 5.25268555 53.86882019 C5.05474556 56.21699123 5.35473202 57.89183757 6.0625 60.125 C12.04003304 59.14907624 14.66674917 56.94202842 18.58203125 52.390625 C21.90172177 47.31035983 22.33660944 42.53561434 22.3125 36.5625 C22.31765625 35.28246094 22.3228125 34.00242187 22.328125 32.68359375 C22.2509391 29.20011302 22.2509391 29.20011302 20.984375 26.47265625 C19.80666136 23.47347872 19.8770513 22.11753514 21.0625 19.125 C23.4609375 17.10546875 23.4609375 17.10546875 26.4375 15.3125 C27.41460937 14.70792969 28.39171875 14.10335937 29.3984375 13.48046875 C32.0625 12.125 32.0625 12.125 35.0625 12.125 C35.88002303 13.70574564 36.69131997 15.28971223 37.5 16.875 C37.95246094 17.75671875 38.40492188 18.6384375 38.87109375 19.546875 C43.57949355 29.73554342 42.19283331 45.14747915 39.03515625 55.58984375 C35.01189932 66.07616402 28.35561977 75.18430251 18.0625 80.125 C7.2386024 84.73724502 -3.85685293 84.23309338 -14.86328125 80.44921875 C-25.63292924 75.8101963 -33.7327515 68.0286529 -38.2109375 57.203125 C-42.07220944 46.15905687 -40.74423215 33.61920093 -35.9375 23.125 C-30.37191859 11.68097905 -22.77812999 5.57442928 -10.9375 1.125 C-7.30010398 -0.0749657 -3.81391242 -0.00814069 0 0 Z " fill="#040807" transform="translate(311.9375,508.875)"/>
<path d="M0 0 C7.01455453 6.1610136 12.16394476 16.383653 13.140625 25.61328125 C13.22876997 27.67431808 13.27085419 29.73786705 13.265625 31.80078125 C13.26949219 33.33798828 13.26949219 33.33798828 13.2734375 34.90625 C13.140625 37.61328125 13.140625 37.61328125 12.140625 40.61328125 C4.85835463 40.739392 -2.30091916 40.36038266 -9.5546875 39.73828125 C-11.16487259 39.60510498 -11.16487259 39.60510498 -12.80758667 39.46923828 C-16.2001827 39.18776124 -19.59227068 38.90061698 -22.984375 38.61328125 C-25.29944781 38.42019653 -27.61455173 38.22748457 -29.9296875 38.03515625 C-35.57328354 37.56550572 -41.2164747 37.09121476 -46.859375 36.61328125 C-46.4034605 37.90656119 -45.94021734 39.19725924 -45.47387695 40.48681641 C-45.21669388 41.20584137 -44.9595108 41.92486633 -44.6945343 42.66567993 C-43.60814698 45.19914795 -42.311725 46.44264397 -40.046875 47.98828125 C-39.40105469 48.44976562 -38.75523437 48.91125 -38.08984375 49.38671875 C-30.70888004 53.44560247 -23.0803612 53.24152255 -14.859375 52.61328125 C-12.29000391 51.84918723 -10.25719772 50.83883508 -7.859375 49.61328125 C-5.94921875 49.67578125 -5.94921875 49.67578125 -3.859375 50.61328125 C-1.71875 53.1171875 -1.71875 53.1171875 0.390625 56.17578125 C1.09703125 57.18769531 1.8034375 58.19960938 2.53125 59.2421875 C3.06234375 60.02464844 3.5934375 60.80710937 4.140625 61.61328125 C2.26862962 65.97822658 -0.598158 67.76597771 -4.859375 69.61328125 C-16.54574529 73.74913774 -33.5064295 73.57239755 -44.859375 68.61328125 C-54.21644962 63.70236626 -61.89775414 58.24806732 -66.609375 48.48828125 C-67.01671875 47.66070312 -67.4240625 46.833125 -67.84375 45.98046875 C-71.51663429 37.41982307 -70.96450664 26.66133821 -67.890625 17.98046875 C-62.95598929 6.65323677 -55.62627195 -1.2373472 -44.33203125 -6.421875 C-29.31879081 -12.28012206 -12.85798616 -9.58946447 0 0 Z " fill="#040807" transform="translate(695.859375,243.38671875)"/>
<path d="M0 0 C3.93801008 1.23562844 5.33113839 3.74892372 7.24414062 7.26367188 C7.59669922 7.93978516 7.94925781 8.61589844 8.3125 9.3125 C8.68439453 9.97701172 9.05628906 10.64152344 9.43945312 11.32617188 C10.95482568 14.17913586 12.00764395 16.41736096 11.96484375 19.6796875 C10.77607111 22.53851725 9.27556753 24.46535514 7.25 26.8125 C6.44175781 27.76640625 5.63351562 28.7203125 4.80078125 29.703125 C4.13103271 30.48719727 4.13103271 30.48719727 3.44775391 31.28710938 C0.72809264 34.50484014 -1.91181653 37.78792305 -4.5625 41.0625 C-5.67301982 42.43372113 -6.7836939 43.80481734 -7.89453125 45.17578125 C-8.42256348 45.82756348 -8.9505957 46.4793457 -9.49462891 47.15087891 C-10.84546141 48.81017268 -12.2067751 50.45986413 -13.57421875 52.10546875 C-14.29222656 52.97816406 -15.01023437 53.85085938 -15.75 54.75 C-16.36359375 55.48734375 -16.9771875 56.2246875 -17.609375 56.984375 C-19.03547912 59.05142479 -19.46646056 60.57952204 -20 63 C-19.45622208 62.93735962 -18.91244415 62.87471924 -18.35218811 62.81018066 C-12.6582461 62.15528211 -6.96352358 61.5075191 -1.26831055 60.86376953 C0.85298881 60.62306159 2.97408723 60.38057566 5.0949707 60.13623047 C8.15524161 59.78397941 11.21619405 59.43827022 14.27734375 59.09375 C15.21521225 58.9843811 16.15308075 58.87501221 17.11936951 58.7623291 C22.78595882 58.13223264 28.29821356 57.89822782 34 58 C35.50787377 60.59988552 37.00645461 63.20440197 38.5 65.8125 C39.14388672 66.91948242 39.14388672 66.91948242 39.80078125 68.04882812 C40.20683594 68.76103516 40.61289062 69.47324219 41.03125 70.20703125 C41.40830078 70.8616333 41.78535156 71.51623535 42.17382812 72.19067383 C43 74 43 74 43 77 C23.12346961 79.42843827 3.22110229 81.53356867 -16.71502686 83.41079712 C-19.09597332 83.63529467 -21.47671579 83.86196734 -23.85723877 84.09091187 C-63.5643863 87.89662979 -63.5643863 87.89662979 -74.75 79.875 C-82.61403628 73.2475348 -87.03604448 64.89907998 -88.28125 54.6953125 C-88.40333939 51.91777889 -88.43580046 49.69001739 -86.921875 47.29296875 C-83.96853432 45.30606679 -81.38177115 45.67799238 -77.875 45.75 C-76.61429688 45.76546875 -75.35359375 45.7809375 -74.0546875 45.796875 C-71 46 -71 46 -70 47 C-69.70368235 48.55786803 -69.43794981 50.1216035 -69.1875 51.6875 C-68.29933634 56.25239997 -67.12206107 59.4319302 -64 63 C-60.71495263 65.00752895 -56.95009049 65.82194247 -53.08203125 65.6640625 C-48.81661896 64.30361205 -46.73858864 60.29944441 -44.27099609 56.77246094 C-41.69304786 53.17739675 -38.9166293 49.73070306 -36.1875 46.25 C-34.96930767 44.68287004 -33.751858 43.1151625 -32.53515625 41.546875 C-25.70279909 32.75264208 -18.81677406 24.00276048 -11.84765625 15.31640625 C-7.82208871 10.26955308 -3.86228353 5.17290828 0 0 Z " fill="#040807" transform="translate(942,390)"/>
<path d="M0 0 C1.73338266 0.82452797 3.46137509 1.66038426 5.1875 2.5 C6.15042969 2.9640625 7.11335937 3.428125 8.10546875 3.90625 C12.0977851 5.96547399 15.87977605 8.35721751 19.69311523 10.72702026 C26.28553991 14.8167437 32.98585717 18.71782737 39.6875 22.625 C43.35148538 24.76379027 47.01448483 26.90420098 50.67333984 29.05175781 C52.79390056 30.29365379 54.91880449 31.52818385 57.04931641 32.75292969 C58.39582275 33.53651855 58.39582275 33.53651855 59.76953125 34.3359375 C60.54530518 34.78243652 61.3210791 35.22893555 62.12036133 35.68896484 C64 37 64 37 66 40 C65.70732068 44.40519906 63.68773817 47.58937867 61.4375 51.3125 C60.79683594 52.38113281 60.15617188 53.44976563 59.49609375 54.55078125 C59.00238281 55.35902344 58.50867188 56.16726563 58 57 C55.03 56.67 52.06 56.34 49 56 C49.05220703 57.23363281 49.05220703 57.23363281 49.10546875 58.4921875 C49.42888291 71.82917144 46.4726456 80.98756961 37.26953125 90.85546875 C30.92780405 96.73281318 24.61492714 98.319366 16.1015625 98.3984375 C7.15134086 97.24866092 -0.16956022 93.5798257 -7.875 89.0625 C-8.85936035 88.49490967 -9.8437207 87.92731934 -10.85791016 87.3425293 C-13.9128377 85.57431198 -16.95733741 83.78922639 -20 82 C-21.48113281 81.1347168 -21.48113281 81.1347168 -22.9921875 80.25195312 C-25.7915842 78.61396832 -28.58489052 76.96624713 -31.375 75.3125 C-32.23077637 74.8079126 -33.08655273 74.3033252 -33.96826172 73.78344727 C-34.74959473 73.31479248 -35.53092773 72.8461377 -36.3359375 72.36328125 C-37.36533447 71.74900269 -37.36533447 71.74900269 -38.41552734 71.12231445 C-40 70 -40 70 -41 68 C-39.74245373 64.99307635 -37.97077218 62.23940817 -36.3125 59.4375 C-35.86455078 58.64408203 -35.41660156 57.85066406 -34.95507812 57.03320312 C-34.51228516 56.27845703 -34.06949219 55.52371094 -33.61328125 54.74609375 C-33.20891846 54.05185303 -32.80455566 53.3576123 -32.38793945 52.64233398 C-31 51 -31 51 -29.09716797 50.12988281 C-26.33787906 49.95899321 -25.16455652 50.71347855 -22.83203125 52.17578125 C-22.02894531 52.66973389 -21.22585938 53.16368652 -20.3984375 53.67260742 C-19.54507813 54.21377197 -18.69171875 54.75493652 -17.8125 55.3125 C-16.01730174 56.41987843 -14.22172178 57.52663828 -12.42578125 58.6328125 C-11.06960693 59.47634277 -11.06960693 59.47634277 -9.68603516 60.33691406 C-5.65194071 62.8346646 -1.5820615 65.26918304 2.5 67.6875 C3.54837036 68.31942261 3.54837036 68.31942261 4.61791992 68.96411133 C10.43517487 72.41651161 15.18268585 73.73480033 22 73 C26.58055431 71.12613687 28.57719125 68.23991532 31 64 C32.60466085 59.85462615 32.7114084 55.21565145 31.3515625 50.98046875 C27.04771379 41.36118295 17.88440136 36.93603588 9.0625 31.9375 C6.9694015 30.73941713 4.87694028 29.54022013 2.78515625 28.33984375 C1.79918457 27.77507324 0.81321289 27.21030273 -0.20263672 26.62841797 C-3.85707781 24.5010727 -7.43310895 22.27062018 -11 20 C-10.44452878 15.445136 -8.49024149 12.10665174 -6.0625 8.3125 C-5.70220703 7.73177734 -5.34191406 7.15105469 -4.97070312 6.55273438 C-3.45692034 4.14127562 -2.01950571 2.01950571 0 0 Z " fill="#040807" transform="translate(912,719)"/>
<path d="M0 0 C3.97625021 1.57393237 6.18624632 4.15121424 9 7.3125 C9.98009541 8.40398119 10.96057751 9.49511525 11.94140625 10.5859375 C12.44559082 11.15022461 12.94977539 11.71451172 13.46923828 12.29589844 C15.93047574 15.03584062 18.43456683 17.73569354 20.9375 20.4375 C21.94675113 21.52982177 22.95586499 22.62227039 23.96484375 23.71484375 C24.46612793 24.25737793 24.96741211 24.79991211 25.48388672 25.35888672 C26.99094817 26.99020187 28.4975303 28.62195809 30.00390625 30.25390625 C30.49874512 30.78991455 30.99358398 31.32592285 31.50341797 31.87817383 C32.49896833 32.95703859 33.49408757 34.03630135 34.48876953 35.1159668 C37.04042779 37.88436984 39.60044075 40.64422576 42.17578125 43.390625 C44.70070466 46.08585117 47.19516133 48.80643644 49.67089844 51.546875 C50.89567333 52.88593822 52.15350373 54.19456697 53.4140625 55.5 C58.02518485 60.62742563 58.02518485 60.62742563 57.9609375 64.12890625 C57.22601305 66.6037422 56.16424659 68.69273402 55 71 C54.49235107 72.01731201 53.98470215 73.03462402 53.46166992 74.08276367 C52.93162354 75.14213135 52.40157715 76.20149902 51.85546875 77.29296875 C51.0514563 78.90014771 51.0514563 78.90014771 50.23120117 80.53979492 C49.82490479 81.3516626 49.4186084 82.16353027 49 83 C47.66481575 82.96241577 47.66481575 82.96241577 46.30265808 82.92407227 C37.87377425 82.68708076 29.44485045 82.45157503 21.01587963 82.21769714 C16.68349631 82.09743556 12.35113 81.9766193 8.01879883 81.85449219 C3.8302146 81.7364384 -0.35840936 81.6198981 -4.54706383 81.50436401 C-6.13727988 81.46024382 -7.72748144 81.41559764 -9.31766701 81.37039185 C-17.87955689 81.12735329 -26.43359247 80.92708763 -35 81 C-34.41572578 75.85358465 -32.77102635 71.79796742 -30.5625 67.1875 C-30.09360352 66.1675293 -30.09360352 66.1675293 -29.61523438 65.12695312 C-27.2583578 60.1291789 -27.2583578 60.1291789 -25 59 C-23.30368769 58.93803116 -21.60477278 58.94207831 -19.90771484 58.97827148 C-18.84676605 58.99836777 -17.78581726 59.01846405 -16.69271851 59.03916931 C-14.96923691 59.07972191 -14.96923691 59.07972191 -13.2109375 59.12109375 C-11.45059677 59.15651024 -11.45059677 59.15651024 -9.6546936 59.19264221 C-5.89467664 59.26940947 -2.13485891 59.35337771 1.625 59.4375 C4.16926098 59.49070759 6.71353178 59.54344807 9.2578125 59.59570312 C15.50533245 59.72504227 21.75270363 59.86029889 28 60 C26.59941186 58.2618546 25.19501078 56.52678131 23.7890625 54.79296875 C23.00740723 53.82641357 22.22575195 52.8598584 21.42041016 51.86401367 C18.49734689 48.40522255 15.34742234 45.26145007 12.109375 42.1015625 C9.59334537 39.5948515 7.28417449 36.95575774 4.97265625 34.26171875 C2.38532015 31.29524826 -0.27376342 28.39782253 -2.9375 25.5 C-3.68362549 24.68825317 -3.68362549 24.68825317 -4.44482422 23.86010742 C-5.6291696 22.57274845 -6.81448056 21.28627788 -8 20 C-5.83836487 13.06001352 -3.1063786 6.56882431 0 0 Z " fill="#040807" transform="translate(320,412)"/>
<path d="M0 0 C11.84777602 10.87328362 12.80747702 27.29880148 14.0390625 42.40625 C14.04679687 43.458125 14.04679687 43.458125 14.0546875 44.53125 C12.39649469 46.18944281 10.28051284 46.05380275 8.00341797 46.39501953 C6.92494598 46.55833771 5.846474 46.72165588 4.73532104 46.8899231 C2.97141525 47.1493721 2.97141525 47.1493721 1.171875 47.4140625 C-0.03089081 47.59258759 -1.23365662 47.77111267 -2.47286987 47.95504761 C-5.02649872 48.33217992 -7.58047649 48.70695584 -10.13476562 49.07958984 C-14.03413852 49.65094957 -17.93107659 50.23724249 -21.828125 50.82421875 C-24.30715587 51.18842554 -26.78631868 51.55173556 -29.265625 51.9140625 C-30.42941681 52.09107697 -31.59320862 52.26809143 -32.79226685 52.45046997 C-38.46262084 53.26178431 -43.33000076 53.77785933 -48.9453125 52.53125 C-54.49150483 21.5650095 -54.49150483 21.5650095 -47.9453125 9.53125 C-47.60628906 8.88542969 -47.26726562 8.23960937 -46.91796875 7.57421875 C-42.69325754 0.67335595 -34.65287958 -3.58467805 -26.9453125 -5.46875 C-17.24584401 -7.48184723 -8.00277347 -6.04225467 0 0 Z " fill="#FBFDFD" transform="translate(319.9453125,629.46875)"/>
<path d="M0 0 C0.24234375 0.63808594 0.4846875 1.27617187 0.734375 1.93359375 C1.23710938 3.17302734 1.23710938 3.17302734 1.75 4.4375 C2.23726562 5.67306641 2.23726562 5.67306641 2.734375 6.93359375 C3.81275056 9.11410613 3.81275056 9.11410613 5.83203125 9.87890625 C9.33347678 10.07448249 12.20697299 8.76195095 15.46484375 7.59375 C18.33298444 6.92201289 20.1832193 7.23407752 23 8 C23.83806616 10.93622464 24.67062444 13.87382067 25.5 16.8125 C25.73847656 17.64587891 25.97695313 18.47925781 26.22265625 19.33789062 C26.44824219 20.14033203 26.67382812 20.94277344 26.90625 21.76953125 C27.11572266 22.50792236 27.32519531 23.24631348 27.54101562 24.00708008 C28 26 28 26 28 29 C22.39 30.32 16.78 31.64 11 33 C12.31268705 38.46049359 12.31268705 38.46049359 13.6328125 43.91918945 C13.79523438 44.60198975 13.95765625 45.28479004 14.125 45.98828125 C14.29257812 46.68477783 14.46015625 47.38127441 14.6328125 48.09887695 C15 50 15 50 15 53 C4.62642369 56.44419134 4.62642369 56.44419134 -1 56 C-3.45855991 50.73677223 -5.56176509 45.63308675 -7 40 C-13.59416314 40.69511121 -19.77515382 42.51237845 -26.125 44.375 C-27.19621094 44.67921875 -28.26742187 44.9834375 -29.37109375 45.296875 C-30.40621094 45.59851563 -31.44132813 45.90015625 -32.5078125 46.2109375 C-33.44254395 46.48212402 -34.37727539 46.75331055 -35.34033203 47.03271484 C-40.57048053 48.92068957 -40.57048053 48.92068957 -44 53 C-44.519124 59.22948797 -43.89083366 61.89328081 -40 67 C-40 67.66 -40 68.32 -40 69 C-42.23046875 71.015625 -42.23046875 71.015625 -45.1875 73.25 C-46.15042969 73.99765625 -47.11335937 74.7453125 -48.10546875 75.515625 C-51 77 -51 77 -53.734375 76.359375 C-60.23548803 72.45870718 -62.5492901 64.9343225 -64.59375 57.98046875 C-66.19739721 50.1626886 -65.06833566 42.86531643 -61 36 C-50.93580848 23.56491721 -30.69191481 20.54913586 -16 17 C-15.34 17 -14.68 17 -14 17 C-14.66 13.37 -15.32 9.74 -16 6 C-11.49418399 2.94767302 -5.56458942 0 0 0 Z " fill="#040807" transform="translate(985,474)"/>
<path d="M0 0 C2.96462031 0.21864879 3.95833542 0.95682179 6.04296875 3.1171875 C6.75066406 4.02726562 7.45835937 4.93734375 8.1875 5.875 C8.97511719 6.87273437 9.76273437 7.87046875 10.57421875 8.8984375 C11.37472656 9.92195313 12.17523438 10.94546875 13 12 C14.49509007 13.8373396 15.99498203 15.67078377 17.5 17.5 C18.24765625 18.41394531 18.9953125 19.32789063 19.765625 20.26953125 C21.21297051 22.03822795 22.66085301 23.80648543 24.109375 25.57421875 C28.58581067 31.03906448 33.04701439 36.51604654 37.5 42 C43.83812805 49.80440463 50.18666675 57.5996715 56.59375 65.34765625 C57.22740479 66.114729 57.86105957 66.88180176 58.51391602 67.67211914 C59.77617724 69.19968111 61.0396468 70.72624557 62.30444336 72.25170898 C63.1727478 73.30273804 63.1727478 73.30273804 64.05859375 74.375 C64.57736084 75.00148438 65.09612793 75.62796875 65.63061523 76.2734375 C68.22651745 79.54643098 69 80.67426145 69 85 C66.953125 87.03515625 66.953125 87.03515625 64.25 89.0625 C63.36828125 89.73410156 62.4865625 90.40570313 61.578125 91.09765625 C60.30195313 92.03931641 60.30195313 92.03931641 59 93 C58.31421875 93.59683594 57.6284375 94.19367188 56.921875 94.80859375 C55 96 55 96 53.03515625 95.98046875 C50.16253992 94.59654034 48.55097481 92.69755806 46.4375 90.3125 C46.00622803 89.82700684 45.57495605 89.34151367 45.13061523 88.84130859 C41.3067449 84.47883591 37.73227396 79.92748081 34.18188477 75.34179688 C31.00686691 71.2475921 27.73781389 67.25371082 24.375 63.3125 C19.5050092 57.60370806 14.73118723 51.82475218 10 46 C8.99100991 44.76161731 7.98188689 43.52334292 6.97265625 42.28515625 C4.76894551 39.58043659 2.57025956 36.87173879 0.375 34.16015625 C-1.90420271 31.34502214 -4.19762271 28.54229749 -6.5 25.74609375 C-7.60437844 24.39340204 -8.70855287 23.04054374 -9.8125 21.6875 C-10.33432861 21.0594043 -10.85615723 20.43130859 -11.39379883 19.78417969 C-15 15.33993923 -15 15.33993923 -15 12 C-13.73071289 10.66552734 -13.73071289 10.66552734 -11.97265625 9.3359375 C-11.34552734 8.85382813 -10.71839844 8.37171875 -10.07226562 7.875 C-9.40904297 7.38 -8.74582031 6.885 -8.0625 6.375 C-6.76153094 5.38305878 -5.46074045 4.39088329 -4.16015625 3.3984375 C-2.59587891 2.21121094 -2.59587891 2.21121094 -1 1 C-0.67 0.67 -0.34 0.34 0 0 Z " fill="#040807" transform="translate(393,289)"/>
<path d="M0 0 C6.09578704 0.8304141 12.87709358 2.53857674 18 6 C19.55675115 9.11350229 18.82285604 11.70857585 18 15 C18.76570312 14.566875 18.76570312 14.566875 19.546875 14.125 C27.02036441 10.30875009 34.89047823 9.63070979 43 12 C43 12.66 43 13.32 43 14 C43.66 14 44.32 14 45 14 C43.64746536 20.45054982 41.96939767 26.71105679 40 33 C37.23723823 32.47731534 34.6739124 31.89130413 32 31 C25.47518007 30.21496249 20.32326237 31.0708147 15 35 C7.87961897 42.5500079 5.60301523 53.42005596 2.625 63.0625 C2.07552505 64.80444905 1.52475439 66.54598994 0.97265625 68.28710938 C-0.36655528 72.52017921 -1.68808467 76.75839506 -3 81 C-4.42304842 80.69633789 -5.84534942 80.38917199 -7.26733398 80.08056641 C-8.05945786 79.90989655 -8.85158173 79.73922668 -9.66770935 79.56338501 C-12.91851207 78.77812545 -15.96039587 77.61584165 -19.0625 76.375 C-20.75052734 75.70597656 -20.75052734 75.70597656 -22.47265625 75.0234375 C-23.30667969 74.68570313 -24.14070312 74.34796875 -25 74 C-22.64603007 64.88349698 -19.79478458 55.9462992 -16.875 47 C-16.38871969 45.5058703 -15.90247338 44.01172953 -15.41625977 42.51757812 C-14.186247 38.74144883 -12.95180028 34.96678235 -11.7164917 31.19238281 C-11.02256524 29.06904707 -10.33132635 26.94485789 -9.64111328 24.8203125 C-8.41413126 21.04438461 -7.17676972 17.2719145 -5.9375 13.5 C-5.56802246 12.36175781 -5.19854492 11.22351563 -4.81787109 10.05078125 C-4.47449707 9.01308594 -4.13112305 7.97539062 -3.77734375 6.90625 C-3.48077881 6.00197266 -3.18421387 5.09769531 -2.87866211 4.16601562 C-2 2 -2 2 0 0 Z " fill="#040807" transform="translate(734,246)"/>
<path d="M0 0 C5.40710052 3.26579301 8.94885954 8.06902268 10.5703125 14.1328125 C11.51809469 19.92033353 10.63686634 24.76699112 8 30 C4.34397717 34.54532568 0.40948668 37.61291986 -5.51171875 38.28515625 C-14.07010627 38.55969309 -20.76547496 37.13302067 -27.4375 31.625 C-31.63051003 27.62371807 -33.02479285 24.56020201 -33.4375 18.8125 C-33.28059246 12.1103065 -30.25004166 6.30925328 -25.625 1.5625 C-16.65932627 -3.77421056 -9.43804437 -4.28845447 0 0 Z " fill="#FBFDFD" transform="translate(972,668)"/>
<path d="M0 0 C4.9342545 4.386004 8.33734326 8.28549265 9.328125 14.98828125 C9.47841534 20.07131525 9.34749393 24.22066668 7.375 28.9375 C0.91320971 35.39929029 -4.15468191 39.56053779 -13.4375 39.8125 C-18.86610309 39.75451759 -22.78511661 38.70268175 -27.1875 35.5 C-31.39592517 31.17783361 -33.90010913 26.6913554 -34.6875 20.6875 C-34.39843868 14.11449686 -30.68850165 8.59824681 -26 4.1875 C-17.91712488 -2.0894399 -9.45012719 -4.44711868 0 0 Z " fill="#FBFDFD" transform="translate(374.1875,767.5)"/>
<path d="M0 0 C4.94341814 3.29881794 8.6543493 8.23661289 10.578125 13.87890625 C11.64639522 20.18402286 12.0087942 26.73837892 9.25 32.5625 C4.05624181 38.03700188 -0.25988313 41.02568271 -7.875 41.375 C-13.93213912 41.22199649 -18.31020188 39.52137968 -22.78515625 35.421875 C-28.12783004 29.59350359 -30.75931129 23.5127091 -30.46875 15.55859375 C-29.62172012 10.22393442 -27.30454281 5.88755144 -23.16015625 2.3984375 C-15.45393566 -2.66015644 -8.48153048 -4.66888059 0 0 Z " fill="#FBFDFD" transform="translate(495.0625,292)"/>
<path d="M0 0 C6.01301217 6.29268715 7.82748427 12.1596049 7.9375 20.75 C7.96328125 21.95527344 7.9890625 23.16054688 8.015625 24.40234375 C7.50579652 29.7009183 5.19493088 32.72297426 1.1875 36.0625 C0.5996875 36.56265625 0.011875 37.0628125 -0.59375 37.578125 C-5.37888079 41.01471893 -11.71229553 40.3216095 -17.3125 39.8125 C-23.01621791 38.07840261 -27.01524521 33.59509959 -30.3125 28.8125 C-32.96554747 23.50640506 -33.17757134 17.61634226 -32.3125 11.8125 C-30.09366245 5.64517988 -27.02701326 1.7647783 -21.1875 -1.25 C-13.34639218 -4.68201137 -7.3549038 -4.85701194 0 0 Z " fill="#FBFDFD" transform="translate(589.3125,261.1875)"/>
<path d="M0 0 C5.65761122 3.69476651 9.7555573 7.76456407 14 13 C14.64710938 13.78375 15.29421875 14.5675 15.9609375 15.375 C20.95357376 21.56994459 22.85377026 25.82350786 22 34 C20.00484587 39.11258247 15.6653534 43.21621061 11 46 C6.07502662 47.31879015 1.98981167 46.83462347 -2.69140625 44.87109375 C-8.53820833 41.47535281 -13.4107808 36.98717788 -18.25 32.3125 C-18.83571777 31.75409424 -19.42143555 31.19568848 -20.02490234 30.62036133 C-21.640625 28.98828125 -21.640625 28.98828125 -24 26 C-23.86123254 21.91141085 -21.15563436 19.79739807 -18.37890625 17.05078125 C-17.44369141 16.12072266 -16.50847656 15.19066406 -15.54492188 14.23242188 C-15.05564209 13.75345459 -14.5663623 13.2744873 -14.06225586 12.78100586 C-12.56424459 11.31420824 -11.07722318 9.83695266 -9.59179688 8.35742188 C-2.3083436 1.1541718 -2.3083436 1.1541718 0 0 Z " fill="#FBFDFD" transform="translate(893,329)"/>
<path d="M0 0 C3.76251706 2.19823207 6.36949408 4.94596937 8 9 C8.7164344 14.04836331 8.54701546 17.94369429 6.1875 22.5 C3.71645999 25.32404572 2.09745968 26.84757505 -1.671875 27.37109375 C-8.87657319 27.52652506 -12.72509157 27.04556459 -18 22 C-20.61078603 18.59462692 -20.36030791 15.17957179 -20 11 C-18.10672504 5.7409029 -15.40216785 3.20991406 -11 0 C-7.13193767 -1.28935411 -3.87468958 -1.07670958 0 0 Z " fill="#040807" transform="translate(780,318)"/>
<path d="M0 0 C4.2473002 2.60629785 6.32196395 5.31916259 8 10 C8.55940967 14.3373407 8.50488005 17.83877589 6.75 21.875 C4.2073643 24.96248621 2.27640451 26.76477688 -1.734375 27.50390625 C-8.41709807 27.63375191 -12.40074531 26.94347443 -17.57421875 22.60546875 C-20.28896548 19.54858956 -20.35294304 16.08341775 -20.265625 12.125 C-19.80080958 8.40647662 -18.5769653 5.72855149 -16 3 C-10.80098255 -0.4927762 -6.13652931 -1.88816286 0 0 Z " fill="#040807" transform="translate(685,894)"/>
<path d="M0 0 C1.14349273 4.92865136 2.28271037 9.85826379 3.41796875 14.78881836 C3.80481351 16.46617336 4.19282737 18.14325918 4.58203125 19.82006836 C5.1410958 22.22960806 5.69595589 24.64008289 6.25 27.05078125 C6.42499023 27.80087967 6.59998047 28.55097809 6.78027344 29.32380676 C7.45713799 32.2841316 8 34.95219819 8 38 C4.03044267 36.56147819 0.69170187 34.66310898 -2.8515625 32.375 C-4.49898437 31.31539062 -4.49898437 31.31539062 -6.1796875 30.234375 C-7.32817377 29.48965854 -8.47661078 28.74486611 -9.625 28 C-10.78100012 27.25482055 -11.93724788 26.51002512 -13.09375 25.765625 C-17.07669414 23.19779748 -21.05692906 20.62871396 -25 18 C-25 17.01 -25 16.02 -25 15 C-23.3034668 13.49780273 -23.3034668 13.49780273 -20.94921875 11.93359375 C-20.10552734 11.36576172 -19.26183594 10.79792969 -18.39257812 10.21289062 C-17.49990234 9.62701172 -16.60722656 9.04113281 -15.6875 8.4375 C-14.80642578 7.84775391 -13.92535156 7.25800781 -13.01757812 6.65039062 C-10.68445028 5.09083216 -8.34381722 3.54342244 -6 2 C-3 0 -3 0 0 0 Z " fill="#FBFDFD" transform="translate(843,870)"/>
<path d="M0 0 C4.67806478 2.97370886 8.83067115 6.29161309 13 9.9375 C14.18715949 10.96784039 15.37465642 11.9977921 16.5625 13.02734375 C17.13403809 13.52580811 17.70557617 14.02427246 18.29443359 14.5378418 C19.95443409 15.96093698 21.64849198 17.33213022 23.3515625 18.703125 C26.07328696 21.0635586 27.02315723 22.58105031 28 26 C22.73578815 29.32476538 18.05789041 29.96707287 12 29 C4.86262814 26.35736548 0.4752632 22.16294265 -3.375 15.6875 C-4.52858593 10.72708049 -4.10118191 5.80593832 -1.4375 1.4375 C-0.7259375 0.7259375 -0.7259375 0.7259375 0 0 Z " fill="#FBFDFD" transform="translate(406,851)"/>
<path d="M0 0 C0.66 0.33 1.32 0.66 2 1 C2 1.66 2 2.32 2 3 C2.66 3 3.32 3 4 3 C2.56404412 6.14915076 0.81466338 8.63778461 -1.375 11.3125 C-2.07367188 12.17230469 -2.77234375 13.03210938 -3.4921875 13.91796875 C-4.31976563 14.93503906 -5.14734375 15.95210938 -6 17 C-8.17118028 19.704729 -10.33543791 22.41497339 -12.5 25.125 C-13.55196862 26.44019593 -14.60404285 27.75530739 -15.65625 29.0703125 C-16.4296875 30.03710938 -17.203125 31.00390625 -18 32 C-21.79844086 30.25773993 -23.29559476 28.92013204 -25 25 C-25.95808162 17.93414808 -23.83416403 12.93031415 -20 7 C-17.5625 4.5625 -17.5625 4.5625 -15 3 C-13.63875 2.13375 -13.63875 2.13375 -12.25 1.25 C-8.09662497 -0.34745193 -4.4050315 -0.45812328 0 0 Z " fill="#FBFDFD" transform="translate(386,372)"/>
<path d="M0 0 C-0.46748708 12.1780384 -2.79456197 24.04097782 -5 36 C-9.77039146 35.24805694 -12.69977988 33.49937133 -16 30 C-19.28804879 25.17752844 -19.95423036 20.67085472 -19 15 C-16.62495956 7.90654589 -13.46195657 3.70964173 -7 0 C-3.86650268 -1.04449911 -3.01031744 -0.93423645 0 0 Z " fill="#FBFDFD" transform="translate(308,531)"/>
<path d="M0 0 C3.40422777 3.22276574 5.22951892 7.3813968 6.83203125 11.734375 C6.83203125 12.394375 6.83203125 13.054375 6.83203125 13.734375 C-1.0336318 13.86554412 -8.82348838 13.48156545 -16.66796875 12.921875 C-17.84617187 12.85162109 -19.024375 12.78136719 -20.23828125 12.70898438 C-21.35976563 12.62841797 -22.48125 12.54785156 -23.63671875 12.46484375 C-25.15942383 12.36272583 -25.15942383 12.36272583 -26.71289062 12.25854492 C-29.16796875 11.734375 -29.16796875 11.734375 -31.16796875 8.734375 C-28.23274672 2.22583919 -24.70776258 -0.47930439 -18.16796875 -3.265625 C-11.59600156 -5.32250023 -5.58087441 -3.74259822 0 0 Z " fill="#FBFDFD" transform="translate(681.16796875,255.265625)"/>
</svg>
