<svg version="1.1" id="Layer_1" xmlns="http://www.w3.org/2000/svg" xmlns:xlink="http://www.w3.org/1999/xlink" x="0px" y="0px"
	 width="100%" viewBox="0 0 1024 1024" enable-background="new 0 0 1024 1024" xml:space="preserve">
<path fill="#000000" opacity="1.000000" stroke="none" 
	d="
M467.222504,772.002319 
	C467.122040,802.545105 467.022308,832.588379 466.918304,863.911682 
	C458.394043,860.966492 451.355591,858.638855 444.403870,856.076050 
	C441.974182,855.180298 442.674316,852.697876 442.680603,850.800049 
	C442.748047,830.478760 442.876923,810.157654 442.985992,789.836487 
	C442.996613,787.857239 442.987396,785.877930 442.987396,783.159058 
	C440.333649,784.717102 439.232056,786.760498 437.906799,788.516052 
	C425.866852,804.464844 413.751892,820.359436 401.937958,836.474487 
	C399.261047,840.125977 396.771912,840.923889 392.733704,839.151367 
	C389.245453,837.620056 385.533783,836.507996 381.827148,835.588379 
	C377.872284,834.607056 376.650238,832.381653 376.734406,828.389465 
	C377.180298,807.245728 377.389618,786.097107 377.676514,764.950073 
	C377.695923,763.519897 377.679047,762.089111 377.679047,759.345886 
	C370.981415,768.289368 365.112457,776.094482 359.277893,783.925232 
	C351.517578,794.340576 343.657532,804.685608 336.115601,815.257263 
	C333.830536,818.460266 331.635895,819.082214 328.138733,817.638306 
	C322.818939,815.441895 316.992249,814.521790 312.055664,811.772339 
	C311.867218,809.034302 313.504883,807.645447 314.651154,806.096863 
	C333.773193,780.263733 352.970581,754.486267 372.042297,728.616089 
	C374.234772,725.642029 376.294861,724.515320 379.954193,726.065979 
	C384.385345,727.943665 388.990845,729.523804 393.654083,730.708496 
	C398.491425,731.937439 400.219910,734.402344 400.081299,739.535461 
	C399.568939,758.510498 399.536316,777.498535 399.328491,796.481689 
	C399.309174,798.246521 399.325928,800.011719 399.325928,802.295044 
	C402.311768,801.152466 403.232697,799.110718 404.466980,797.478577 
	C416.118347,782.071899 427.790192,766.679688 439.281555,751.154053 
	C441.524506,748.123718 443.651062,747.199341 447.256653,748.621155 
	C452.513885,750.694275 457.931885,752.376587 463.331970,754.063354 
	C466.127716,754.936646 467.412720,756.513123 467.286743,759.510864 
	C467.119049,763.502014 467.231262,767.504944 467.222504,772.002319 
z"/>
<path fill="#000000" opacity="1.000000" stroke="none" 
	d="
M617.791626,735.691528 
	C620.935242,734.447937 623.759644,733.423096 626.473755,732.161011 
	C629.354004,730.821655 631.876648,730.287842 633.314514,734.608215 
	C638.350281,731.107300 643.136658,728.112793 647.527893,724.621216 
	C651.025024,721.840454 653.954773,721.312317 657.690918,724.205505 
	C661.362854,727.048950 665.546570,729.221436 669.378174,731.872498 
	C671.629578,733.430420 673.463318,733.368835 675.698669,731.785400 
	C686.432007,724.182129 697.228027,716.666382 708.058105,709.201233 
	C710.134949,707.769653 710.735107,706.316589 710.054199,703.760071 
	C708.643677,698.464844 707.708557,693.044556 706.497375,687.693909 
	C706.111816,685.990540 705.754883,684.345032 707.415955,683.166687 
	C713.356140,678.952698 719.330078,674.786255 725.845581,670.212708 
	C728.578796,676.421753 728.917786,682.429626 730.048279,688.153320 
	C735.779968,717.173462 741.147949,746.265381 746.843689,775.292908 
	C747.603149,779.163330 746.824524,781.570068 743.473083,783.628113 
	C739.508240,786.062805 735.689087,788.774902 732.023499,791.643677 
	C729.263245,793.803833 727.063599,793.784973 724.004639,791.925232 
	C696.262878,775.059631 668.414246,758.369690 640.589722,741.640320 
	C638.930298,740.642639 637.209412,739.747314 634.394531,738.178711 
	C639.754333,751.788391 644.656311,764.286072 649.597107,776.768372 
	C655.415710,791.468323 661.162170,806.198486 667.176514,820.818176 
	C668.772522,824.697754 668.511597,826.895874 664.153015,828.262451 
	C659.717529,829.653076 655.359375,831.398010 651.154114,833.383301 
	C647.366760,835.171387 645.601501,834.207642 644.107544,830.352356 
	C635.568054,808.315186 626.810120,786.362732 618.128357,764.380676 
	C615.621277,758.032715 613.389526,751.557861 610.528198,745.374023 
	C608.408203,740.792358 609.137634,738.219299 614.184387,737.108948 
	C615.305481,736.862305 616.346191,736.249939 617.791626,735.691528 
M714.040833,760.419250 
	C716.951843,762.255615 719.862854,764.091980 723.583557,766.439148 
	C720.455933,753.169495 718.707764,740.585754 715.012024,728.321289 
	C710.427917,730.403625 693.461243,742.428833 690.774414,745.482605 
	C698.360840,750.355896 705.893616,755.194763 714.040833,760.419250 
z"/>
<path fill="#000000" opacity="1.000000" stroke="none" 
	d="
M152.033600,566.264771 
	C146.007019,567.121094 140.383255,567.752686 134.841797,568.814026 
	C131.719315,569.412109 130.440338,568.153625 130.050491,565.422302 
	C127.633598,548.489624 124.243370,531.620789 123.078873,514.600525 
	C120.848068,481.994873 143.919952,458.315338 176.146561,458.733154 
	C198.291870,459.020264 216.465927,473.421997 223.249100,496.573486 
	C227.799118,512.103088 228.724808,528.305908 231.179153,544.218628 
	C233.082611,556.559570 234.015518,554.333984 221.585037,556.222046 
	C198.571686,559.717285 175.511520,562.904480 152.033600,566.264771 
M198.467239,494.069275 
	C190.421066,484.287140 179.695038,482.555908 168.131943,484.653229 
	C154.064438,487.204803 146.005661,496.113983 144.108994,510.291412 
	C142.804779,520.040222 145.733719,529.398010 146.950012,538.909119 
	C147.342087,541.974976 149.514236,541.564880 151.877716,541.218750 
	C167.020523,539.001282 182.176544,536.869446 197.343857,534.825378 
	C208.935226,533.263245 208.867691,533.350159 207.265732,521.928711 
	C205.925125,512.370789 205.239532,502.647461 198.467239,494.069275 
z"/>
<path fill="#000000" opacity="1.000000" stroke="none" 
	d="
M194.371643,696.301392 
	C202.684631,690.746704 210.703583,685.397766 219.589661,679.470398 
	C204.942123,673.459595 196.631500,662.881714 194.023682,648.205139 
	C192.532730,639.814148 194.029907,631.682129 198.258835,624.070374 
	C207.384888,607.644104 228.995087,597.795776 245.835785,602.575500 
	C264.240753,607.799255 275.861053,623.865540 274.957794,642.839844 
	C281.881989,641.074585 281.881989,641.074585 286.118713,647.453674 
	C293.744965,658.936279 293.769440,658.973083 282.138763,666.710632 
	C257.175385,683.318054 232.142639,699.821716 207.252686,716.538208 
	C203.834717,718.833740 201.877045,718.763489 199.791428,715.118103 
	C197.645508,711.367249 195.270523,707.698669 192.588913,704.316711 
	C189.854050,700.867615 190.048874,698.440674 194.371643,696.301392 
M224.315079,662.297180 
	C236.398651,669.037598 251.964722,663.205139 256.674591,650.172363 
	C260.294464,640.155701 253.730240,627.925171 243.408432,625.454712 
	C234.071762,623.220093 222.453018,628.829224 217.787949,637.823547 
	C213.537582,646.018433 215.621704,654.441956 224.315079,662.297180 
z"/>
<path fill="#000000" opacity="1.000000" stroke="none" 
	d="
M445.154114,99.784065 
	C471.406036,94.305061 491.461334,109.443733 494.457245,136.191818 
	C497.571198,163.994080 476.414124,180.689957 454.034393,180.293747 
	C449.136200,180.207031 444.705383,178.205933 439.617676,176.813431 
	C439.153015,181.865616 441.022858,186.195312 441.771851,190.648483 
	C442.652954,195.887009 443.843872,201.075577 444.982544,206.267807 
	C445.636505,209.249817 444.886871,211.014038 441.573486,211.536819 
	C436.643677,212.314636 431.752167,213.344666 426.857788,214.333862 
	C423.948273,214.921906 422.278778,214.336639 421.619995,210.944626 
	C415.343292,178.624374 408.976746,146.321075 402.443817,114.051788 
	C401.720245,110.477684 402.715363,109.180115 406.031616,108.671753 
	C409.477081,108.143570 412.908966,107.454399 416.293823,106.620529 
	C420.915588,105.481918 425.456177,104.199379 424.865509,113.410110 
	C430.729156,105.571594 437.224457,101.881691 445.154114,99.784065 
M454.595428,160.986267 
	C463.025665,159.603638 468.901459,154.906570 470.325592,146.487625 
	C471.857697,137.430298 470.236389,128.712677 462.299927,122.723824 
	C454.165161,116.585373 441.176117,118.636055 435.461853,126.584496 
	C429.160919,135.348953 431.337128,151.051514 439.844696,157.385254 
	C443.956757,160.446609 448.521515,162.259201 454.595428,160.986267 
z"/>
<path fill="#000000" opacity="1.000000" stroke="none" 
	d="
M800.463257,196.606262 
	C808.449402,207.575073 813.186829,219.167709 808.905396,232.419281 
	C802.631897,251.836777 778.974731,269.004456 752.226379,251.489807 
	C747.043579,248.096130 742.395325,244.055267 738.323303,239.379105 
	C735.040771,235.609467 731.815796,231.789703 728.093872,227.441544 
	C721.669495,233.647400 716.186462,238.454834 711.314697,243.817566 
	C707.924194,247.549683 705.665710,247.241364 702.641052,243.614532 
	C699.876404,240.299408 696.768433,237.225128 693.529663,234.364014 
	C690.423340,231.619888 690.525024,229.599976 693.491821,226.680344 
	C711.421265,209.035629 729.192749,191.230255 747.014954,173.476562 
	C751.381653,169.126678 755.770874,164.798767 760.088684,160.400818 
	C761.748474,158.710190 763.230225,158.122971 765.124695,160.098389 
	C776.765747,172.237000 789.347900,183.462708 800.463257,196.606262 
M750.561707,205.062347 
	C748.328918,207.300644 746.104919,209.547729 743.859863,211.773682 
	C742.664734,212.958694 741.992798,214.243347 743.410522,215.641769 
	C749.666321,221.812531 755.012817,229.033081 762.976807,233.262573 
	C769.882202,236.929840 776.407349,235.470703 782.307556,229.242645 
	C787.457214,223.806992 788.527161,216.771362 784.705200,210.475510 
	C779.907593,202.572281 772.795349,196.766983 765.812073,189.998611 
	C760.705994,195.041779 755.885132,199.803253 750.561707,205.062347 
z"/>
<path fill="#000000" opacity="1.000000" stroke="none" 
	d="
M825.879150,411.733856 
	C852.306702,410.711548 878.249573,409.679413 904.194397,408.698120 
	C910.662659,408.453461 910.807312,408.632660 911.055420,415.261505 
	C911.204895,419.254547 911.080750,423.263214 911.367065,427.244202 
	C911.629578,430.894196 910.230042,432.277740 906.557129,432.342621 
	C898.072266,432.492615 889.592163,432.947144 881.112427,433.328674 
	C879.352417,433.407898 877.470642,432.945282 875.591858,434.349060 
	C879.628540,440.146027 882.484863,446.361420 883.711426,453.389099 
	C887.117493,472.905823 875.346069,489.300964 855.775818,491.340668 
	C840.213562,492.962646 824.552551,493.080566 808.920044,493.561981 
	C805.933472,493.653961 804.706177,492.615448 804.653687,489.592834 
	C804.570129,484.774567 804.345520,479.946625 803.888000,475.150726 
	C803.516968,471.261322 804.954468,469.827087 808.875549,469.697357 
	C822.174194,469.257385 835.479248,468.760071 848.751038,467.839874 
	C858.474487,467.165741 862.907410,462.274261 862.970459,453.300262 
	C863.039673,443.450562 857.480957,436.260559 848.516541,435.386475 
	C839.387329,434.496307 830.221313,435.358307 821.074890,435.691437 
	C816.250671,435.867126 811.425415,436.029480 806.604858,436.280670 
	C803.918701,436.420685 802.857849,435.336029 802.532776,432.586273 
	C801.924500,427.441498 801.881775,422.293091 801.652954,417.139679 
	C801.510498,413.932648 802.856201,412.559723 805.942627,412.461670 
	C812.427917,412.255707 818.911072,411.986237 825.879150,411.733856 
z"/>
<path fill="#000000" opacity="1.000000" stroke="none" 
	d="
M757.390625,337.003113 
	C738.979736,333.651917 727.890747,321.407104 726.469238,303.302795 
	C725.963074,296.857056 726.765503,295.905914 733.024292,295.792053 
	C736.520325,295.728455 740.018738,295.766144 743.515503,295.804535 
	C743.977783,295.809570 744.437012,296.089630 745.161560,296.329773 
	C745.566956,300.023621 745.442078,303.841797 746.899109,307.448029 
	C750.761230,317.007019 760.210815,318.642548 766.485229,310.661987 
	C781.412109,291.676147 796.269104,272.635345 811.185913,253.641617 
	C812.493896,251.976212 813.481995,249.946045 816.160706,248.834412 
	C820.593262,254.744934 823.638611,261.532318 826.974243,268.117950 
	C827.947327,270.039093 826.007812,271.477753 824.891418,272.868530 
	C815.195251,284.948425 805.469299,297.004425 795.765320,309.078094 
	C794.851501,310.215057 794.028076,311.424652 792.639832,313.310974 
	C808.905945,311.559479 824.384155,310.065491 839.812134,308.163818 
	C848.429749,307.101593 848.424194,306.779694 852.551697,314.638824 
	C854.615784,318.569061 857.337036,322.198151 858.494446,326.766327 
	C854.424500,329.352966 849.885803,328.429840 845.737610,328.881561 
	C823.752686,331.275726 801.721680,333.247894 779.704712,335.346100 
	C772.425720,336.039764 765.195007,337.367676 757.390625,337.003113 
z"/>
<path fill="#000000" opacity="1.000000" stroke="none" 
	d="
M305.634613,712.348145 
	C309.553955,715.660400 312.934570,719.098083 317.164154,721.446899 
	C321.432312,714.870728 319.569092,706.477173 312.644531,699.402039 
	C306.762115,693.391724 299.573456,690.471619 291.172821,690.348022 
	C290.243835,685.387268 289.954041,680.784485 289.704987,676.150085 
	C289.496887,672.277588 291.502563,671.055725 294.786133,671.115906 
	C297.103638,671.158264 299.445221,671.400330 301.723480,671.831238 
	C319.063690,675.110535 342.320923,695.329773 341.512238,719.527954 
	C340.745728,742.465942 313.255737,769.825928 282.069763,753.470459 
	C266.385651,745.244934 256.927216,732.387024 257.684845,713.747070 
	C258.118256,703.084229 262.810089,694.313110 270.196289,686.792236 
	C272.503815,684.442688 274.104431,685.491943 276.092255,687.202393 
	C285.804932,695.559753 295.598511,703.822998 305.634613,712.348145 
M281.442932,729.989075 
	C289.377594,739.189819 300.658112,740.907104 307.927338,733.308777 
	C298.907043,725.641907 289.924530,718.007141 280.610229,710.090332 
	C276.151337,717.270996 277.187897,723.377563 281.442932,729.989075 
z"/>
<path fill="#000000" opacity="1.000000" stroke="none" 
	d="
M296.882202,244.820465 
	C301.742706,244.100433 303.507629,246.071762 303.244965,250.379791 
	C302.118896,268.847931 292.133850,281.842102 277.031830,291.024994 
	C259.546509,301.657043 238.538528,297.575317 225.804321,281.897827 
	C212.517197,265.539581 213.452011,243.463364 228.122147,227.160919 
	C244.023422,209.490372 267.783875,207.992783 285.176849,223.373352 
	C288.546906,226.353455 289.300598,228.401703 286.002411,232.243256 
	C275.483185,244.495483 265.404022,257.125824 255.179245,269.630066 
	C254.365997,270.624634 253.139801,271.396240 253.076340,273.345337 
	C257.530121,275.690979 262.286835,275.558197 266.774292,273.613861 
	C276.373260,269.454834 282.257294,261.868622 283.444977,251.594772 
	C284.027313,246.557358 285.793488,244.847717 290.416168,245.010162 
	C292.409821,245.080200 294.412109,244.903671 296.882202,244.820465 
M245.675797,236.051178 
	C234.959808,244.032364 232.762253,257.538330 241.639694,263.373383 
	C249.012146,254.361862 256.411377,245.317627 264.082855,235.940613 
	C257.534210,231.993576 251.917603,232.650269 245.675797,236.051178 
z"/>
<path fill="#000000" opacity="1.000000" stroke="none" 
	d="
M146.665344,411.939270 
	C146.812637,389.587372 158.555176,373.502716 177.694794,369.312439 
	C183.585236,368.022797 189.579071,368.470367 195.568298,369.239075 
	C199.904282,369.795624 201.020630,371.804230 200.300552,375.955750 
	C197.657089,391.196686 195.250092,406.478607 192.734695,421.741882 
	C192.413330,423.691864 191.799744,425.619995 192.754913,428.053253 
	C198.198959,428.092865 202.181610,425.284485 204.976959,420.994324 
	C210.635712,412.309601 211.657013,402.908203 207.387573,393.405243 
	C205.816971,389.909424 206.135498,387.962952 209.448532,386.192963 
	C211.641663,385.021271 213.626633,383.461243 215.710907,382.084320 
	C220.933197,378.634460 221.375732,378.726196 224.438141,384.001007 
	C236.596588,404.943237 226.017395,446.328949 194.610825,451.638977 
	C169.587662,455.869720 147.431702,437.843964 146.665344,411.939270 
M166.573837,401.300079 
	C162.698547,413.339844 167.029297,423.747101 177.253922,425.854340 
	C179.236496,414.192993 181.215698,402.551361 183.203766,390.857758 
	C175.843689,390.217865 170.921188,393.303009 166.573837,401.300079 
z"/>
<path fill="#000000" opacity="1.000000" stroke="none" 
	d="
M795.330811,529.592102 
	C809.647827,493.588409 847.816162,496.154053 864.028198,514.615845 
	C876.807373,529.168457 877.111877,545.827698 870.333252,562.835388 
	C863.893005,578.994141 851.403564,588.711975 833.982300,588.744141 
	C804.209656,588.799194 787.416016,564.753784 793.166077,537.682129 
	C793.718384,535.081909 794.505920,532.531616 795.330811,529.592102 
M848.381226,559.895996 
	C852.910400,554.996277 855.318237,549.214539 854.144958,542.596680 
	C852.191223,531.577271 843.019409,525.052307 830.665527,525.373840 
	C822.609985,525.583496 816.131165,530.443848 813.478516,538.267334 
	C810.707214,546.440918 812.823120,554.427490 819.097107,559.474243 
	C827.367310,566.126709 839.048645,566.497131 848.381226,559.895996 
z"/>
<path fill="#000000" opacity="1.000000" stroke="none" 
	d="
M369.111694,212.349503 
	C352.882721,216.619446 338.800323,213.619705 327.708862,201.242630 
	C316.864410,189.141205 313.672943,175.018448 319.181885,159.436691 
	C325.134033,142.601547 346.593353,129.023407 364.747314,130.399017 
	C385.200958,131.948883 399.015533,144.398483 403.034821,164.903412 
	C406.054504,180.308716 397.361389,197.537369 381.813690,206.834412 
	C377.947144,209.146500 373.873840,211.046173 369.111694,212.349503 
M350.175568,153.507095 
	C338.661469,159.211060 338.445892,172.163986 342.272858,180.149506 
	C347.296570,190.632187 356.665466,195.306763 366.676575,192.173233 
	C377.736542,188.711395 382.776093,178.089630 378.806091,166.608154 
	C374.274109,153.501602 363.339508,148.251099 350.175568,153.507095 
z"/>
<path fill="#000000" opacity="1.000000" stroke="none" 
	d="
M546.912476,143.306183 
	C538.902466,142.649887 531.356262,142.018158 523.030090,141.321136 
	C524.167175,148.224060 527.607056,152.243149 532.774231,154.684250 
	C541.551147,158.830612 550.568970,159.326187 559.121521,154.277725 
	C562.726379,152.149811 564.739075,152.715546 566.865417,155.923416 
	C568.425293,158.276718 570.174622,160.546143 572.107788,162.600464 
	C574.974792,165.647232 573.951782,167.783676 570.986450,169.869247 
	C565.253357,173.901367 558.879700,176.296539 551.943481,176.745590 
	C533.523010,177.938171 516.663452,174.181778 505.826019,157.786850 
	C496.449677,143.602310 496.781006,128.213348 505.504913,113.831085 
	C514.420227,99.133209 528.571960,93.453468 545.298645,95.428993 
	C566.176697,97.894814 577.499695,107.866837 581.768921,126.118172 
	C583.002380,131.391220 582.464905,136.726700 582.208496,142.038391 
	C582.059875,145.118530 580.497681,146.217102 577.225586,145.877670 
	C567.294617,144.847443 557.328613,144.154861 546.912476,143.306183 
M557.545532,121.030571 
	C551.500427,114.014107 543.229614,111.529510 535.168274,114.308350 
	C528.985229,116.439705 525.232849,120.801163 524.907410,127.003105 
	C536.551147,127.703751 548.121155,129.589859 559.924377,129.689117 
	C560.449585,126.311569 559.250671,123.966652 557.545532,121.030571 
z"/>
<path fill="#000000" opacity="1.000000" stroke="none" 
	d="
M775.790649,590.893799 
	C777.638916,587.684265 779.506470,584.896423 780.938232,581.900269 
	C782.835083,577.930969 785.028931,577.602844 788.760376,579.863586 
	C804.714905,589.529724 820.818909,598.949463 836.878784,608.441467 
	C840.606750,610.644836 844.311218,612.901978 848.144958,614.908142 
	C851.476746,616.651672 852.471802,618.555359 849.998657,621.904114 
	C847.930115,624.705017 846.082397,627.739136 844.603638,630.889038 
	C842.442322,635.493042 839.904053,638.162170 834.955505,634.080994 
	C833.710083,636.323364 834.524170,638.315918 834.453003,640.236877 
	C833.935547,654.212402 828.174622,665.346619 816.149292,672.675476 
	C807.555847,677.912781 798.313171,677.564941 789.231995,673.856567 
	C778.850037,669.616882 769.824707,662.885010 760.076904,657.471252 
	C755.272583,654.803040 750.610840,651.878723 745.818726,649.187622 
	C743.389099,647.823181 743.016846,646.294250 744.501892,643.926208 
	C747.155823,639.694275 749.786438,635.431030 752.110901,631.014526 
	C753.920410,627.576416 755.730347,627.044556 759.153320,629.171082 
	C768.771973,635.146790 778.598083,640.789429 788.362305,646.529602 
	C790.083069,647.541321 791.873779,648.444702 793.677307,649.303528 
	C801.798279,653.170349 807.635132,652.168457 812.463623,646.124146 
	C817.973938,639.226318 818.276733,630.384888 813.167419,624.007141 
	C810.844116,621.106934 807.875916,618.990784 804.674683,617.131958 
	C795.888062,612.030090 787.135437,606.869385 778.388367,601.699829 
	C771.749878,597.776611 771.762817,597.754761 775.790649,590.893799 
z"/>
<path fill="#000000" opacity="1.000000" stroke="none" 
	d="
M213.113007,355.076599 
	C194.753296,353.710571 176.767075,354.670898 158.235504,352.745056 
	C160.833008,345.274506 163.874115,338.529907 167.565887,332.087402 
	C168.663696,330.171661 170.850616,330.813629 172.621429,330.883575 
	C187.586487,331.474823 202.549347,332.121399 217.513672,332.731689 
	C219.146225,332.798279 220.783859,332.740692 223.025452,332.740692 
	C221.762817,329.545807 219.558090,327.763824 217.728043,325.768372 
	C208.159714,315.335236 198.597305,304.894867 188.876846,294.604340 
	C186.592010,292.185547 186.093491,290.082794 187.585388,287.070618 
	C190.137314,281.918182 192.359222,276.602325 194.788467,271.202301 
	C198.819000,273.104370 200.707611,276.168549 203.033447,278.670166 
	C218.228485,295.013641 233.173553,311.592560 248.544952,327.766998 
	C252.611893,332.046417 253.695724,335.648804 250.572235,340.804565 
	C248.432922,344.335785 247.031189,348.329071 245.449265,352.177307 
	C244.421783,354.676758 242.849686,355.614960 240.076813,355.523285 
	C231.255249,355.231720 222.424667,355.212524 213.113007,355.076599 
z"/>
<path fill="#000000" opacity="1.000000" stroke="none" 
	d="
M848.872437,373.568420 
	C840.017334,375.932220 831.526489,378.314087 823.025818,380.660217 
	C812.328674,383.612579 810.095093,389.654968 816.338806,398.802032 
	C816.888855,399.607849 817.384460,400.450806 818.009766,401.442017 
	C814.592957,405.337311 810.162231,407.757690 806.297791,410.846985 
	C804.507935,412.277740 802.963135,411.105957 801.547302,409.666718 
	C793.668945,401.657898 790.139038,384.004272 794.436340,373.583832 
	C797.864624,365.270874 804.909180,361.332031 812.912903,358.850006 
	C821.333862,356.238678 829.874146,354.013062 838.356018,351.596954 
	C839.931458,351.148163 841.477234,350.595123 842.779236,350.173584 
	C843.761414,348.286285 842.888489,346.871765 842.512939,345.492340 
	C840.424683,337.822174 839.636475,338.644806 847.884521,336.269043 
	C851.158630,335.325928 855.165955,332.730652 857.764526,334.719788 
	C860.107239,336.513000 860.505615,340.846436 861.812256,344.189423 
	C866.003540,344.087341 869.689575,342.443298 873.500549,341.455872 
	C879.886597,339.801208 879.864197,339.698608 881.688110,345.770966 
	C882.740234,349.273621 883.800415,352.774139 884.815979,356.287445 
	C886.593506,362.436646 886.577942,362.432465 880.205566,364.308502 
	C876.554932,365.383179 872.913391,366.488922 868.991943,367.663269 
	C869.032959,372.794098 870.921021,377.275757 872.316711,381.781311 
	C873.511658,385.638855 872.426697,387.369049 868.663025,388.112885 
	C866.388611,388.562347 864.183655,389.368225 861.952393,390.030518 
	C855.762817,391.867706 855.823425,391.740906 853.777405,385.357849 
	C852.496338,381.361145 852.719116,376.728333 848.872437,373.568420 
z"/>
<path fill="#000000" opacity="1.000000" stroke="none" 
	d="
M289.227417,209.744904 
	C277.534729,195.413498 266.156738,181.284439 254.551544,167.344513 
	C251.713699,163.935730 251.336411,161.673492 255.359390,159.020035 
	C258.815491,156.740479 262.033478,154.025650 265.055359,151.182938 
	C268.055573,148.360626 270.102234,148.537735 272.729065,151.804413 
	C284.094818,165.938766 295.662018,179.911224 307.161407,193.938080 
	C316.340454,205.134598 325.390503,216.441498 334.787720,227.451950 
	C337.925018,231.127853 337.831207,233.378632 333.832336,236.083145 
	C330.263702,238.496658 326.924835,241.316788 323.783203,244.274658 
	C321.021637,246.874680 319.313171,246.508163 316.991272,243.611145 
	C307.937012,232.314178 298.655457,221.199402 289.227417,209.744904 
z"/>
<path fill="#000000" opacity="1.000000" stroke="none" 
	d="
M610.565369,107.567009 
	C614.560303,108.864273 618.136902,110.286522 621.838562,111.205498 
	C626.092773,112.261665 628.073181,114.077095 625.580872,118.473122 
	C625.209290,119.128510 625.248047,120.016617 624.992065,121.339348 
	C633.010620,117.041229 640.971069,117.001305 649.107483,118.859337 
	C652.169800,119.558662 653.269836,121.064041 652.107727,124.236992 
	C650.621948,128.293793 649.353149,132.438583 648.181946,136.599258 
	C647.281799,139.797195 645.793884,141.168442 642.443298,139.520401 
	C641.127075,138.872986 639.593018,138.579865 638.123047,138.347488 
	C627.105225,136.605652 620.127930,140.456207 616.323364,151.091858 
	C612.627747,161.422623 609.490173,171.953506 606.134399,182.405151 
	C604.046265,188.908859 603.961365,188.979889 597.441406,186.842102 
	C593.174133,185.442963 588.929077,183.975281 584.654297,182.600037 
	C582.261108,181.830154 581.655762,180.481781 582.447754,178.041306 
	C589.789368,155.416733 597.095337,132.780273 604.288635,110.108246 
	C605.379517,106.670059 607.152100,105.933891 610.565369,107.567009 
z"/>
<path fill="#000000" opacity="1.000000" stroke="none" 
	d="
M634.292114,185.677032 
	C639.034912,177.859116 644.876038,175.391647 651.949036,177.945816 
	C658.777710,180.411758 663.025208,186.720688 662.263977,193.266830 
	C661.475891,200.043900 655.459717,205.963989 648.741211,206.584824 
	C638.123474,207.565948 629.112793,196.043564 634.292114,185.677032 
z"/>
<path fill="#000000" opacity="1.000000" stroke="none" 
	d="
M557.155029,779.776794 
	C544.844116,781.636108 536.500122,774.473755 538.040222,763.844971 
	C539.061768,756.795532 544.781189,751.687927 552.030762,751.351013 
	C559.451111,751.006165 565.364990,755.675659 567.011169,763.179321 
	C568.586731,770.361023 565.192200,776.267944 557.155029,779.776794 
z"/>
</svg>