<?xml version="1.0" encoding="UTF-8"?>
<svg version="1.1" viewBox="0 0 1600 1600" width="1280" height="1280" xmlns="http://www.w3.org/2000/svg">
<path transform="translate(532,1300)" d="m0 0c6.81 1.99 13.5 4.16 20.2 6.44 7.36 2.49 14.7 4.74 22.2 6.64 2.52 0.92 2.52 0.92 4.52 3.92 0.23 2.25 0.23 2.25 0.21 4.93 0 1.02-0.01 2.03-0.01 3.08-0.02 1.12-0.03 2.23-0.05 3.38-0.01 1.18-0.01 2.36-0.02 3.57-0.03 3.23-0.06 6.46-0.1 9.69l-0.09 10.2c-0.04 5.71-0.1 11.4-0.16 17.1-0.07 6.57-0.13 13.1-0.19 19.7-0.05 7.02-0.12 14-0.18 21.1-0.02 2.01-0.04 4.01-0.06 6.02-0.24 26.9-0.24 26.9-1.35 39.3 4.03-2.6 6.86-4.67 9.5-8.69 0.59-0.88 1.18-1.76 1.79-2.67 1.05-1.62 2.1-3.24 3.14-4.87 3.27-5.06 6.9-9.6 10.8-14.2 3.41-4.04 6.23-8.26 8.89-12.8 1.61-2.39 3.25-4.4 5.16-6.54 3.71-4.16 6.93-8.56 10.1-13.1 5.28-7.4 10.8-14.6 16.6-21.6 4.17-5.11 7.77-10.3 11.2-15.9 2.56-3.87 5.59-7.23 8.74-10.6 8.09 2.15 16.1 4.49 24.1 6.94 1.68 0.5 1.68 0.5 3.38 1.01 1.65 0.5 1.65 0.5 3.32 1.01 1.46 0.45 1.46 0.45 2.95 0.9 2.72 0.96 5.3 2.03 7.93 3.21 1.21 0.54 1.21 0.54 2.44 1.1 0.62 0.27 1.23 0.55 1.86 0.83 0.03 18.2 0.05 36.3 0.06 54.5v2.05c0.03 38.3-0.08 76.6-0.56 115-0.02 1.42-0.02 1.42-0.04 2.88-0.14 11.2-0.29 22.4-0.46 33.6-3.04-0.57-5.92-1.23-8.82-2.28-0.72-0.25-1.43-0.5-2.16-0.76-0.75-0.28-1.5-0.55-2.28-0.83s-1.57-0.57-2.38-0.86c-1.65-0.59-3.3-1.19-4.95-1.79-2.53-0.92-5.06-1.82-7.59-2.73-1.61-0.58-3.22-1.16-4.83-1.75-1.13-0.4-1.13-0.4-2.29-0.82-3.18-1.16-5.87-2.29-8.7-4.18-0.36-2.72-0.36-2.72-0.33-6.29 0-1.01 0-1.01 0.01-2.03 0.01-2.29 0.04-4.58 0.07-6.87l0.03-4.98c0.14-18.4 0.51-36.8 0.83-55.2 0.39-22.5 0.52-45.1 0.39-67.6-2.9 2.21-5.42 4.18-7.4 7.26-0.41 0.61-0.82 1.23-1.24 1.87-0.43 0.66-0.86 1.32-1.3 1.99-5.24 7.87-10.9 15.3-16.8 22.7-4.49 5.7-8.82 11.5-13 17.4-3.14 4.49-6.25 8.87-9.96 12.9-2.65 2.89-4.69 5.9-6.75 9.25-2.22 3.6-4.5 6.77-7.37 9.87-3.84 4.15-7.08 8.61-10.3 13.2-4.43 6.31-9.13 12.4-13.9 18.5-7.65-2.17-15.1-4.75-22.6-7.44-1.91-0.69-3.83-1.38-5.75-2.06-9.36-3.36-9.36-3.36-11.6-4.5-0.03-11.2-0.05-22.5-0.06-33.7 0-0.84 0-1.68-0.01-2.55-0.02-26.3 0.16-52.7 0.57-79 0.01-0.76 0.02-1.52 0.04-2.3 0.14-9.15 0.3-18.3 0.46-27.4-3.31 3.26-6.2 6.45-8.88 10.2-2.52 3.53-5.07 7.02-7.74 10.4-0.86 1.09-0.86 1.09-1.73 2.2-0.55 0.7-1.09 1.39-1.65 2.11-3.39 4.34-6.49 8.74-9.38 13.4-2.27 3.64-4.64 6.84-7.56 10-2.93 3.17-5.35 6.37-7.68 10-4.59 7.08-9.79 13.6-15 20.3-4.38 5.57-8.66 11.2-12.6 17-3.58 5.16-7.55 9.91-11.6 14.7-2.22 2.57-2.22 2.57-4.14 5.57-3.99-0.59-7.67-1.44-11.5-2.74-1.53-0.52-1.53-0.52-3.09-1.05-1.05-0.35-2.1-0.71-3.18-1.09-7.38-2.51-14.8-4.94-22.2-7.12 0.76-4.56 2.2-7.01 5.06-10.7 0.61-0.78 0.61-0.78 1.22-1.58 2.56-3.31 5.2-6.55 7.84-9.79 2.75-3.39 5.15-6.85 7.44-10.6 2.02-3.26 4.03-6.19 6.63-9 4.19-4.58 7.59-9.66 11.1-14.8 3.76-5.38 7.72-10.6 11.8-15.7 2.83-3.56 5.4-7.19 7.86-11 2.85-4.4 5.94-8.32 9.38-12.2 4.43-5.08 8.2-10.4 11.8-16 3.25-4.97 6.8-9.61 10.5-14.2 3.67-4.6 7.08-9.34 10.4-14.2 3.82-5.48 7.74-10.8 12-16 3.14-3.95 5.98-8.12 8.82-12.3z" fill="#000100"/>
<path transform="translate(1212,1194)" d="m0 0h2c2.2 10.5 4.39 20.9 6.56 31.4 0.16 0.77 0.33 1.55 0.49 2.35 4.07 19.6 7.98 39.2 11.1 58.9 2.56 16.3 5.86 32.4 9.32 48.5 2.59 12.1 4.96 24.2 7.11 36.4 0.53 2.95 1.07 5.9 1.61 8.85 0.55 3.06 1.1 6.12 1.64 9.18 0.35 1.87 0.35 1.87 0.7 3.77 0.21 1.19 0.42 2.38 0.63 3.61 0.19 1.05 0.38 2.1 0.58 3.18 0.29 2.95 0.16 5.06-0.72 7.88-2.3 1.92-2.3 1.92-5.31 3.75-4.44 2.79-8.65 5.67-12.8 8.87-1.96 1.47-3.92 2.93-5.88 4.38-0.88 0.66-1.76 1.33-2.66 2.01-0.83 0.57-1.67 1.15-2.53 1.74-1.07 0.77-1.07 0.77-2.17 1.55-5.17 1.37-9.71-1.21-14.2-3.74-2.73-1.7-5.41-3.46-8.08-5.25-6.42-4.19-12.8-8.26-19.6-11.8-4.96-2.54-9.47-5.36-14-8.64-8.17-5.63-17-10.5-25.7-15.1-3.46-1.85-6.63-3.87-9.81-6.19-3.84-2.76-7.8-5.03-12-7.18-11.7-6.02-22.8-13.3-33.6-20.7-2.34-1.52-4.6-2.74-7.13-3.9-4.24-2.07-8.19-4.47-12.1-7.06-7.02-4.61-14.3-8.73-21.6-12.8-2.43-1.34-4.85-2.69-7.27-4.04-1.17-0.65-2.33-1.29-3.5-1.94 0.48 1.08 0.97 2.16 1.47 3.27 6.8 15.2 13.5 30.3 18.8 46.1 2.44 7.1 5.36 14 8.37 20.8 2.83 6.49 5.35 13 7.75 19.7 3.98 11 8.41 21.8 12.9 32.6 3.79 9.18 7.46 18.3 10.7 27.7 1.72 4.97 3.74 9.7 6.06 14.4 1.03 2.43 1.55 4.71 1.98 7.3-0.56 0.24-1.11 0.48-1.69 0.73-0.76 0.34-1.52 0.67-2.31 1.02-1.11 0.49-1.11 0.49-2.25 0.98-2.16 1-4.25 2.05-6.36 3.14-5.06 2.55-10.3 4.5-15.6 6.44-0.98 0.37-1.96 0.75-2.97 1.13-0.94 0.35-1.89 0.69-2.86 1.05-0.85 0.31-1.7 0.63-2.57 0.95-2.61 0.62-3.91 0.65-6.35-0.44-1.32-2.64-2.34-5.11-3.31-7.88-0.3-0.81-0.61-1.62-0.92-2.46-1.21-3.29-2.39-6.59-3.56-9.89-0.77-2.17-1.55-4.35-2.33-6.52-0.41-1.14-0.41-1.14-0.83-2.29-3.13-8.5-6.84-16.7-10.5-25-3.51-7.98-6.75-15.9-9.32-24.3-2.09-6.61-4.8-12.9-7.55-19.2-3.67-8.48-7.04-17-10.1-25.7-3.82-11-8.32-21.6-13.1-32.2-8.52-19.1-8.52-19.1-8.52-26.5 3.8-1.64 7.61-3.27 11.4-4.91 1.29-0.55 2.58-1.11 3.87-1.66 6.14-2.64 12.3-5.28 18.4-7.82 0.76-0.32 1.52-0.63 2.3-0.95 1.97-0.66 1.97-0.66 4.97-0.66 0.99 2.64 1.98 5.28 3 8 11.2-6.3 21.6-13.3 31.8-21.1 0.64-0.49 1.28-0.99 1.94-1.49 0.56-0.44 1.13-0.88 1.71-1.34 1.59-1.07 1.59-1.07 4.59-2.07 2.49 1.44 4.78 2.91 7.12 4.56 0.68 0.47 1.36 0.93 2.05 1.41 1.95 1.33 3.89 2.68 5.83 4.03 11.2 8.31 11.2 8.31 24 13 2.02-0.73 2.02-0.73 3.98-2.03 0.74-0.46 1.49-0.91 2.26-1.39 0.79-0.5 1.57-1 2.38-1.52 0.82-0.51 1.63-1.02 2.47-1.54 5.01-3.17 9.65-6.55 14.2-10.4 3.64-2.86 7.48-5.36 11.4-7.89 6.09-3.99 12-8.13 17.8-12.6 6.27-4.81 12.6-8.94 19.6-12.7-0.6-5.48-1.54-10.7-2.88-16-0.37-1.5-0.73-3-1.1-4.5-0.57-2.34-1.15-4.67-1.73-7-0.57-2.27-1.12-4.54-1.67-6.82-0.18-0.69-0.36-1.38-0.54-2.09-0.91-3.82-1.54-6.85-0.08-10.6 1.96-1.82 1.96-1.82 4.52-3.49 0.94-0.62 1.87-1.24 2.83-1.88 1-0.64 2-1.28 3.03-1.94 2.01-1.33 4.02-2.67 6.03-4 0.97-0.64 1.94-1.27 2.93-1.93 8.24-5.37 8.24-5.37 15.7-11.8zm-21 108v2c-0.53 0.25-1.05 0.49-1.6 0.75-3.05 1.59-5.94 3.4-8.84 5.25-0.61 0.39-1.23 0.79-1.86 1.2-4.8 3.11-9.3 6.51-13.8 10-5.09 3.98-10.5 7.42-15.9 10.8-3.62 2.29-3.62 2.29-7 4.91v2c5.78 4.26 12.2 7.79 18.4 11.4 5.01 2.92 9.74 6.1 14.4 9.51 6.53 4.73 13.3 8.99 20.2 13.1 1.37 0.83 2.74 1.66 4.11 2.5 1.38 0.83 2.76 1.67 4.14 2.5 0.66 0.4 1.31 0.8 1.99 1.21 2.7 1.94 2.7 1.94 5.76 2.79-0.34-10.6-3.15-20.8-5.69-31.1l-2.73-11.2c-0.23-0.92-0.45-1.84-0.68-2.79-1.33-5.45-2.59-10.9-3.79-16.4-0.27-1.21-0.54-2.43-0.81-3.68-0.48-2.2-0.95-4.41-1.41-6.62-0.31-1.43-0.31-1.43-0.64-2.89-0.17-0.82-0.34-1.63-0.52-2.48-0.24-0.6-0.48-1.21-0.73-1.83-0.99-0.33-1.98-0.66-3-1z" fill="#000100"/>
<path transform="translate(169,786)" d="m0 0c0.7 0.16 1.4 0.31 2.12 0.47 11.5 2.6 19.9 7 28.9 14.5 0.92 0.76 1.83 1.52 2.77 2.3 13.9 12 23.5 25.4 30 42.5 0.36 0.95 0.72 1.9 1.1 2.87 5.94 16.4 8.45 33.6 11.1 50.8 0.17 1.11 0.35 2.22 0.52 3.37 2.22 14.3 4.3 28.6 5.98 42.9 0.08 0.69 0.16 1.39 0.25 2.1 0.75 6.43 1.33 12.7 1.25 19.2-9.44 1.39-18.9 2.75-28.4 3.93-22.1 2.76-44.1 6.12-66.1 9.57-23.3 3.65-46.5 7.15-69.9 10-6.44 0.82-12.9 1.73-19.3 2.65-3.81 0.53-7.48 0.86-11.3 0.81-2.89-17.6-5.62-35.3-8-53-0.18-1.35-0.18-1.35-0.37-2.72-0.84-6.25-1.66-12.5-2.47-18.8-0.27-2.11-0.54-4.22-0.82-6.32-2.22-16.7-3.69-32.6-0.65-49.3 0.18-1.03 0.36-2.05 0.54-3.1 4.75-25.6 17.8-46.6 39.2-61.7 23.8-16.3 55.9-19.7 83.6-13.1zm-64 54c-0.53 0.4-1.05 0.79-1.6 1.2-12 9.19-18.8 21.9-21.4 36.8-2.7 22.3 3.07 45.2 7 67 13.4-1.39 26.7-3.49 40-5.66 26.9-4.37 53.9-8.1 81-11.3 1.26-3.79 0.68-6.89 0.14-10.8-0.1-0.78-0.2-1.55-0.31-2.35-0.22-1.65-0.44-3.3-0.67-4.95-0.34-2.45-0.66-4.91-0.98-7.36-2.52-21.3-2.52-21.3-10.1-41.2-0.34-0.66-0.69-1.32-1.05-1.99-7.81-14.4-18.9-24.5-34.7-29.5-18.8-4.39-42.1-1.97-57.4 10.1z" fill="#000100"/>
<path transform="translate(305 1074)" d="m0 0c1.98 1.68 3.78 3.45 5.6 5.31 0.88 0.83 1.77 1.65 2.67 2.5 12.7 12.1 21.4 27.6 22.5 45.4 0.12 6.05-0.41 11.3-2.19 17.1 3.94-1.88 7.78-3.76 11.4-6.25 2.62-1.75 2.62-1.75 4.62-1.75 0.5 1.12 0.99 2.23 1.5 3.38 1.73 3.48 3.77 6.32 6.25 9.31 5.18 6.26 10.7 13.6 13.2 21.3-7.66 6.97-16.3 12.4-25.1 17.7-5.44 3.31-10.6 6.92-15.7 10.7-6.27 4.6-12.6 8.89-19.3 12.9-5.58 3.43-11 7.09-16.3 10.8-3.87 2.7-7.79 5.26-11.8 7.75-4.8 2.97-9.46 6.13-14 9.45-6.48 4.71-13 9.05-20 13-3.51 2.06-6.79 4.38-10.1 6.75-3.14 2.19-6.34 4.26-9.56 6.32-9.51 6.07-18.9 12.2-27.8 19.1-2.28 1.47-2.28 1.47-5.28 1.47-0.56-1.02-1.11-2.05-1.69-3.11-5.04-9.19-10.4-17.7-17-26-3.39-4.43-3.39-4.43-3.21-6.98 1.1-2.5 2.02-2.86 4.48-4 4.59-2.36 8.58-5.21 12.7-8.31 5.49-4.12 11.1-7.72 17.1-11.1 3.05-1.79 5.77-3.83 8.55-5.99 11.5-8.56 11.5-8.56 15.1-8.56v-3c-0.6-0.14-1.21-0.29-1.83-0.44-0.84-0.23-1.68-0.45-2.54-0.68-0.82-0.21-1.63-0.42-2.46-0.64-15-5.88-29.1-18.6-35.8-33.3-0.83-1.97-1.6-3.95-2.35-5.96-0.26-0.68-0.51-1.37-0.78-2.08-6.99-19.1-7.98-38.4 0.72-57.2 1.92-3.96 3.94-7.84 6.06-11.7 0.5-0.9 0.99-1.8 1.5-2.72 1.61-2.44 3.29-4.13 5.5-6.03 0.68-0.59 1.36-1.18 2.06-1.79 1.94-1.46 1.94-1.46 4.94-2.46 0.44-0.9 0.44-0.9 0.9-1.82 4.89-9.63 21-15 30.7-18.5 23.1-7.33 46.7-4.11 66.8 9.98zm-73.4 43.7c-7.64 9.66-12.3 21.2-11 33.6 2.76 12.1 8.79 21.8 19 29 8.84 4.81 17.5 7.31 27.4 4.94 14.2-4.46 26.7-12.2 34.2-25.2 4.41-8.63 5.92-16.9 3.72-26.6-3.27-9.96-9.48-19.4-18.4-25.1-3.59-1.63-7.21-2.9-11-4-0.67-0.19-1.34-0.39-2.03-0.59-14.7-3.07-31.3 3.93-41.9 14z" fill="#000100"/>
<path transform="translate(715,88)" d="m0 0c1.04 0.36 2.08 0.72 3.15 1.1 7.43 2.76 13 6.59 18.8 11.9 0.92 0.8 1.84 1.61 2.79 2.43 15.5 14.3 23.3 36.4 24.5 57.2 0.7 19.9-5.06 39-18.3 54.2-1.01 1.07-1.01 1.07-2.04 2.16-0.64 0.69-1.28 1.39-1.94 2.1-14.5 14.3-36.9 20.2-56.6 20.2-10.1-0.14-17.5-2.61-26.3-7.47-0.98-0.53-1.95-1.07-2.95-1.62-0.73-0.41-1.47-0.81-2.22-1.23 1.51 7.03 3.02 14 4.53 21.1 0.52 2.38 1.03 4.76 1.54 7.15 0.75 3.45 1.49 6.9 2.23 10.3 0.23 1.05 0.45 2.1 0.68 3.18 0.22 1.02 0.44 2.04 0.67 3.09 0.22 1.01 0.43 2.01 0.65 3.04 0.49 2.2 1.01 4.39 1.54 6.57 0.27 1.14 0.55 2.28 0.83 3.45 0.25 1.03 0.51 2.05 0.77 3.11 0.57 3.06 0.66 5.88 0.56 8.99-5.48 1.17-11 2.33-16.4 3.47-1.87 0.39-3.73 0.79-5.6 1.19-2.67 0.57-5.36 1.13-8.04 1.69-0.83 0.18-1.66 0.36-2.52 0.54-1.17 0.24-1.17 0.24-2.37 0.49-0.68 0.14-1.36 0.29-2.07 0.44-2.21 0.2-3.85-0.17-5.96-0.82-11.6-52.9-11.6-52.9-16.1-79.1-2.8-16.4-6.11-32.6-9.72-48.9-3.25-14.6-6.16-29.2-8.64-44-0.54-3.15-1.13-6.29-1.74-9.43-0.19-1.02-0.39-2.04-0.59-3.09-0.36-1.9-0.73-3.79-1.11-5.68-0.24-1.24-0.24-1.24-0.48-2.51-0.14-0.72-0.28-1.44-0.43-2.18-0.2-2.54 0.23-4.67 0.83-7.14 5.21-1.17 10.4-2.33 15.6-3.47 1.78-0.39 3.55-0.79 5.33-1.19 2.54-0.57 5.09-1.13 7.64-1.69 0.8-0.18 1.59-0.36 2.41-0.54 5.64-1.22 5.64-1.22 8.98-0.11 0.5 7.42 0.5 7.42 1 15 2.51-2.51 5.02-5.02 7.4-7.65 6.67-7.17 13.4-11.8 22.6-15.4 0.65-0.26 1.31-0.51 1.98-0.77 17.3-6.46 37.8-7.08 55-0.23zm-65.1 44.8c-8.12 10.5-10.3 22.3-8.94 35.2 2.41 13.1 8.08 24.1 19 32 2.59 1.56 5.21 2.83 8 4 0.91 0.41 1.82 0.82 2.75 1.25 11.1 2.56 21.6 0.1 31.4-5.37 9.46-6.47 14.9-15 17.6-25.9 1.31-15.4-2.07-29.7-11.8-41.9-7.15-7.15-16.8-11.4-26.9-12.2-11.2 0.9-23.2 4.54-31.2 13z" fill="#000100"/>
<path transform="translate(1285,199)" d="m0 0c3.71 1.24 4.77 2.85 7 6v2c0.56 0.23 1.11 0.45 1.69 0.69 2.97 1.68 4.96 3.84 7.31 6.31l5 5c0.54 0.52 1.09 1.04 1.65 1.58 1.48 1.44 2.92 2.92 4.35 4.42v2c0.53 0.2 1.06 0.41 1.61 0.62 3.43 1.98 5.94 4.68 8.7 7.5 0.58 0.59 1.17 1.18 1.77 1.79 3.55 3.61 6.92 7.34 10.2 11.2 2.02 2.2 4.21 4.1 6.47 6.06 19.2 17 33.4 39.4 35.7 65.2 0.83 16-4.22 32.8-14.4 45.3-2.83 3.1-5.93 5.86-9.14 8.57-1.22 1.03-2.41 2.1-3.55 3.21-11.6 11-27.2 14.6-42.7 14.5-20.4-0.62-36.3-8.11-51.7-21-0.55-0.45-1.09-0.9-1.65-1.37-6.64-5.63-12.7-11.8-18.9-18-1.94-1.95-3.89-3.89-5.84-5.83-1.24-1.24-2.47-2.48-3.71-3.72-0.58-0.58-1.16-1.16-1.76-1.75-4.07-4.09-4.07-4.09-5.18-6.32h-4c-1.9 1.9-1.9 1.9-3.62 4.44-4.87 6.4-10.5 11.6-16.9 16.5-2.56 2.15-4.34 4.36-6.32 7.05-3.35 4.33-6.16 6.73-11.1 9-1.51-1.62-3-3.25-4.5-4.88-0.84-0.9-1.67-1.8-2.53-2.74-1.97-2.38-1.97-2.38-1.97-4.38-0.99-0.33-1.98-0.66-3-1-1.18-1.14-2.35-2.3-3.48-3.49-1.75-1.74-3.62-3.26-5.52-4.82-3.96-3.41-6.53-7.12-9-11.7 1.79-1.84 3.58-3.67 5.38-5.5 0.5-0.52 1.01-1.05 1.53-1.59 1.33-1.34 2.71-2.63 4.09-3.91h2c0.27-0.6 0.54-1.2 0.81-1.81 1.19-2.19 2.29-3.6 4.19-5.19h2c0.21-0.53 0.42-1.07 0.63-1.62 1.91-3.32 4.58-5.79 7.31-8.44 0.54-0.53 1.07-1.06 1.63-1.61 1.47-1.44 2.95-2.89 4.43-4.33 0.51-0.55 1.02-1.1 1.55-1.67 1.45-1.33 1.45-1.33 3.45-1.33 0.24-0.57 0.49-1.14 0.74-1.73 3.26-5.88 9.24-10.4 14.3-14.8 3.6-3.08 6.65-6.46 9.69-10.1 1.81-1.94 3.58-3.58 5.59-5.29 6.07-5.23 11.7-11 17.3-16.6 1.96-1.97 3.93-3.93 5.89-5.89 1.27-1.26 2.54-2.53 3.8-3.8 0.58-0.58 1.16-1.15 1.75-1.74 3.38-3.4 6.56-6.89 9.62-10.6 1.56-1.79 3.25-3.29 5.09-4.78 3.18-2.7 5.94-5.56 8.69-8.69 3.35-3.81 6.83-7.19 10.7-10.5 2.41-2.06 4.6-4.27 6.8-6.54zm2.36 61.4c-1.02 1.05-2.04 2.12-3.05 3.18-1.08 1.12-2.16 2.23-3.25 3.34-0.52 0.54-1.05 1.08-1.59 1.63-1.81 1.8-3.7 3.46-5.66 5.09-3.04 2.58-5.63 5.37-8.25 8.38-2.86 3.27-5.68 6-9.18 8.56-4.07 3-6.92 6.35-9.87 10.4-1.39 1.86-2.83 3.43-4.51 5.02 0.62 0.25 1.24 0.5 1.88 0.75 2.55 1.5 2.84 2.63 4.12 5.25 0.9 1.18 1.84 2.32 2.81 3.44 0.48 0.55 0.96 1.11 1.46 1.68 2.18 2.37 4.44 4.62 6.73 6.88l1.77 1.77c16.7 17 16.7 17 38.8 23.6 11-0.13 17.5-4.77 25.3-12.2 6.42-6.63 8.22-12.9 8.44-22-0.28-17.9-11.1-28.3-23.3-40.2-2.7-2.68-5.37-5.38-8.01-8.11-1.04-1.07-2.08-2.14-3.11-3.2-0.53-0.55-1.05-1.1-1.59-1.67-1.38-1.4-2.83-2.72-4.29-4.02-3.22-0.33-3.22-0.33-5.64 2.38z" fill="#000100"/>
<path transform="translate(1571,686)" d="m0 0c0.97 14.4 1.11 28.6 1 43-49 2.42-49 2.42-71 2 0.6 0.89 1.2 1.79 1.82 2.71 13 19.6 19.7 39 15.9 62.8-3.23 15.7-10.6 28.7-23.9 37.6-23.3 14.7-53.7 12.4-80.2 13.4-4.34 0.16-8.67 0.34-13 0.52-3.37 0.14-6.74 0.27-10.1 0.41-1.61 0.06-3.21 0.12-4.81 0.19-2.22 0.09-4.44 0.18-6.66 0.26-1.26 0.05-2.52 0.1-3.82 0.15-2.66-0.02-4.68-0.21-7.19-1.02-0.94-8.12-1.31-16.2-1.56-24.4-0.07-2.22-0.14-4.44-0.22-6.66-0.05-1.4-0.09-2.81-0.13-4.22-0.04-1.28-0.09-2.55-0.13-3.86 0.04-2.89 0.04-2.89 1.04-3.89 2.07-0.18 4.14-0.29 6.21-0.37 0.65-0.03 1.3-0.06 1.97-0.09 2.16-0.09 4.32-0.17 6.48-0.26 1.51-0.06 3.02-0.13 4.53-0.19 4-0.17 7.99-0.33 12-0.49 6.35-0.26 12.7-0.52 19-0.79 2.19-0.09 4.39-0.18 6.59-0.26 6.77-0.28 13.6-0.6 20.3-1.02 1.17-0.07 2.34-0.14 3.54-0.21 10.4-0.99 19.2-3.86 26.6-11.4 4.48-5.61 6.34-13.6 5.96-20.7-1.38-11.2-4.37-20.3-13.2-27.9-14.3-9.62-31.8-7.51-48.1-6.72-2.26 0.1-4.52 0.21-6.79 0.31-6.41 0.29-12.8 0.59-19.2 0.89-3.95 0.19-7.9 0.37-11.8 0.55l-4.5 0.21c-2.08 0.1-4.17 0.2-6.25 0.29-1.78 0.08-1.78 0.08-3.59 0.17-2.65-0.01-2.65-0.01-3.65-1.01-0.24-2.92-0.43-5.82-0.57-8.74-0.05-0.88-0.09-1.76-0.14-2.67-0.09-1.86-0.18-3.73-0.27-5.59-0.14-2.86-0.29-5.71-0.45-8.57-0.09-1.8-0.18-3.61-0.27-5.42-0.04-0.86-0.09-1.71-0.13-2.6-0.16-3.43-0.27-6.12 0.83-9.41 5.88-1.22 11.8-1.28 17.7-1.45 1.18-0.03 2.36-0.07 3.58-0.11 3.24-0.1 6.48-0.19 9.73-0.28 3.45-0.1 6.91-0.21 10.4-0.31 6.61-0.2 13.2-0.4 19.8-0.59 12.3-0.36 24.6-0.73 36.9-1.1 2.86-0.08 5.71-0.17 8.56-0.25 15.1-0.45 30.2-0.93 45.2-1.48 1.26-0.05 2.52-0.1 3.82-0.15 5.89-0.22 11.8-0.44 17.7-0.67 11.5-0.45 23-0.73 34.6-0.61z" fill="#000100"/>
<path transform="translate(1388,375)" d="m0 0c2.82 1.41 3.17 3.15 4.5 6 3.02 6.21 6.43 12.1 9.98 18 1.19 1.98 2.36 3.97 3.52 5.96 0.61 1.03 1.23 2.07 1.86 3.13 1.44 3.62 1.39 5.19 0.14 8.87-1.67 2.47-3.61 4.62-5.62 6.81-1.11 1.24-2.2 2.48-3.3 3.72-0.53 0.59-1.07 1.19-1.61 1.8-3.53 4.01-6.74 8.28-9.87 12.6-2.97 4.08-6.16 7.8-9.6 11.5-2.98 3.22-5.66 6.35-8 10.1-2.23 3.52-4.71 6.46-7.56 9.5-4.43 4.75-8.44 9.72-12.4 14.9-0.55 0.72-1.11 1.45-1.68 2.19-2.69 3.55-5.1 7.1-7.38 10.9 0.7-0.13 1.4-0.25 2.12-0.38 8.01-1.39 16-2.4 24.1-3.28 1.35-0.15 2.7-0.29 4.06-0.44 3.56-0.39 7.13-0.78 10.7-1.16 2.2-0.24 4.41-0.48 6.61-0.72 20.8-2.24 41.5-4.26 62.4-5.02 3.98 6.34 7.9 12.7 11.8 19.1 0.59 0.97 1.18 1.93 1.79 2.92 0.56 0.94 1.12 1.88 1.69 2.84 0.51 0.84 1.02 1.68 1.54 2.55 1.38 2.88 1.92 5.39 2.23 8.57-1.63 1.63-3.55 1.3-5.8 1.46-1.04 0.08-2.08 0.16-3.16 0.24-1.15 0.08-2.3 0.16-3.49 0.25-2.51 0.18-5.02 0.37-7.53 0.56-1.36 0.1-2.72 0.2-4.07 0.3-25.2 1.88-50.3 4.11-75.4 6.69-0.72 0.07-1.45 0.15-2.19 0.22-15.2 1.56-30.3 3.16-45.5 4.84-2.16 0.24-4.32 0.47-6.47 0.71-3.86 0.42-7.72 0.86-11.6 1.31-8.18 0.92-16.3 1.61-24.5 1.65-0.71 0.01-1.42 0.02-2.15 0.02-11-0.08-22-3.01-31.1-9.25-0.92-0.6-1.83-1.2-2.77-1.82-5.99-4.1-10.5-7.99-14.2-14.2-0.34-0.55-0.69-1.1-1.04-1.67-9.23-15-16.5-31.3-13-49.3 7.18-1.13 14.2-1.11 21.5-1.06 1.81 0 1.81 0 3.65 0.01 2.95 0.01 5.9 0.03 8.85 0.05 0.06 1.34 0.06 1.34 0.11 2.71 0.62 11.4 1.8 20.8 9.89 29.3 5.77 4.57 11.3 6.29 18.6 6.38 1.11 0.02 2.22 0.05 3.36 0.08 3.73-0.57 4.7-1.54 7.02-4.46 1.14-1.56 2.24-3.14 3.31-4.75 2.17-3.16 4.36-6.11 6.94-8.94 4.51-4.99 8.36-10.5 12.3-15.9 0.64-0.88 0.64-0.88 1.29-1.78 0.97-1.35 1.92-2.7 2.86-4.06 0.43-0.51 0.86-1.02 1.3-1.55h2c0.26-0.57 0.53-1.14 0.8-1.72 2.26-4.29 5.35-8.04 8.26-11.9 1.02-1.36 1.02-1.36 2.06-2.75 4.08-5.39 8.28-10.4 12.9-15.4 2.25-2.6 4.05-5.33 5.91-8.22 3.37-5.24 7.21-9.6 11.5-14.1 3.33-3.78 6.16-7.81 9.04-11.9 2.73-3.91 5.6-7.52 8.8-11 3.42-3.84 6.56-7.92 9.74-12z" fill="#000100"/>
<path transform="translate(557 161)" d="m0 0c1.73 1.39 3.41 2.82 5.08 4.27 0.88 0.76 0.88 0.76 1.77 1.54 5.09 4.72 8.2 10.1 11.4 16.2 0.51 0.93 1.01 1.85 1.54 2.81 9.66 18 13 36.3 7.92 56.4-1.98 6.42-5.33 12.3-8.65 18.1-0.56 1.01-1.11 2.02-1.69 3.07-12.2 20.7-35.1 33.2-57.6 39.9-21 5.27-41.2 1.92-59.8-8.97-19.1-11.9-29.6-29.8-35.9-50.8-4.79-21.8 1.42-41.8 12.9-60.3 4.47-6.5 9.74-12.1 16-16.9h2v-2c8.89-7.23 19.8-13.4 31-16 1.09-0.29 2.17-0.58 3.29-0.88 25.2-6.07 50.2-2.35 70.6 13.6zm-85.7 33.8c-5.97 8.36-9.99 19.2-9.19 29.5 0.97 4.81 2.37 9.38 4 14 0.34 0.97 0.68 1.94 1.02 2.94 1.72 4.6 3.45 8.53 6.98 12.1h2l1 3c3.13 2.63 6.57 4.8 10 7 0.66 0.44 1.31 0.87 1.99 1.31 6.84 4 14.7 4.48 22.4 3.06 11.2-3.12 21.5-9.46 27.9-19.4 1.02-1.95 1.89-3.9 2.68-5.96 0.42-1.05 0.83-2.1 1.25-3.18 3.12-15.8-1.87-27.7-10.2-40.8-5.58-8.29-13.7-12.6-23.2-15.4-13.9-2.29-28 2.46-38.6 11.9z" fill="#000100"/>
<path transform="translate(191,610)" d="m0 0c1.97 5.94 0.14 12.6-0.69 18.6-0.1 0.77-0.2 1.53-0.31 2.32-2.49 18.4-5.86 36.6-9.19 54.8-0.13 0.74-0.27 1.48-0.41 2.24-0.91 5-1.83 10-2.76 15-0.35 1.92-0.35 1.92-0.71 3.88-1.2 6.41-2.47 12.8-3.93 19.1 9.97-2.21 17.2-5.13 25-12 0.76-0.67 1.53-1.34 2.32-2.03 9.25-9.14 10.8-22.9 11-35.4 0.06-10.1-1.62-21-7.31-29.6 8.68-6.9 17.6-13.2 27-19 12.1 11.2 16.9 27.8 17.5 43.8 0.42 26.9-9.26 53.5-26.5 74.2h-2v2c-16.6 13.9-36.3 21.6-58 20-20.2-2.6-41-10.3-54.1-26.7-1.03-1.36-2.04-2.73-3.05-4.1-0.52-0.68-1.03-1.35-1.56-2.04-4.77-6.42-8.16-12.9-10.5-20.6-0.32-1.03-0.64-2.06-0.98-3.12-3.31-13.7-2.67-28.8-0.58-42.6 0.16-1.13 0.16-1.13 0.33-2.28 3.04-18 15.8-35.6 30.2-46.1 20.8-14.7 44.9-14.2 69.2-10.4zm-57.6 46.5c-8.88 9.39-10.9 21-10.6 33.4 0.41 8.72 4.01 17 10.3 23.1 5.1 3.86 9.67 6.87 16 8 0.15-0.91 0.3-1.82 0.46-2.77 0.72-4.37 1.44-8.74 2.16-13.1 0.14-0.79 0.27-1.59 0.41-2.42 1.52-9.18 3.07-18.4 4.7-27.5 0.14-0.78 0.28-1.56 0.42-2.36 0.67-3.73 1.34-7.47 2.02-11.2 0.24-1.35 0.49-2.71 0.73-4.06 0.21-1.17 0.42-2.35 0.64-3.56 0.56-3.15 0.56-3.15 0.46-7-10.4-0.29-19.9 2.48-27.6 9.49z" fill="#000100"/>
<path transform="translate(1474 884)" d="m0 0c0.55 0.6 1.1 1.2 1.67 1.81 2.02 2.15 2.02 2.15 3.98 3.68 5.26 4.29 8.4 8.51 11.4 14.6 0.43 0.83 0.85 1.66 1.29 2.51 11.1 22.4 11 47.1 3.12 70.4-5.83 16.3-14.2 29-27.7 40-0.77 0.65-1.55 1.31-2.35 1.98-14.2 10.9-34 15-51.6 13-16.7-2.26-30.9-5.68-43-18-1.23-0.88-2.48-1.74-3.75-2.56-14.3-10.5-20.6-28.6-23.2-45.4-2.2-20.2 0.84-43.6 12-61 0.54-0.86 1.07-1.72 1.62-2.61 4.09-6.22 9.01-11.3 14.4-16.4 0.79-0.85 1.57-1.69 2.38-2.56 9.91-9.21 20.3-14.5 33.6-16.4 1.34-0.2 1.34-0.2 2.71-0.41 22.2-2.54 47.2 1.04 63.5 17.4zm-82.2 35c-10 11.9-13.1 22.5-12 38 2.26 10 9.5 19.3 18 25 13.2 7.01 26.4 9.86 41 6 9.96-3.27 17.6-11 22.5-20.1 4.32-10.1 5.61-22.5 1.53-32.8-1.89-3.76-4.27-6.87-7.03-10-0.97-1.15-0.97-1.15-1.97-2.32-8.8-9.66-20-12.9-32.7-13.9-11.3-0.39-21.2 1.96-29.3 10.2z" fill="#000100"/>
<path transform="translate(897 87)" d="m0 0c1.5 0.83 3.03 1.61 4.56 2.38 7.56 4.03 12.8 10.1 18.2 16.6 0.69 0.81 1.37 1.61 2.08 2.44 11.4 14.6 13 35.7 11.9 53.6-0.46 3.42-1.12 6.68-2 10-13.4 0.39-26.7-0.76-40.1-1.75-1.83-0.13-1.83-0.13-3.69-0.27-23.8-1.72-47.5-3.75-71.2-5.98 5.88 15.4 5.88 15.4 17.6 26.4 1.47 0.56 2.95 1.08 4.44 1.56 1.13 0.44 2.26 0.88 3.43 1.33 14.8 5.49 29.8 5.58 44.6-0.33 2.47-1.28 4.82-2.61 7.13-4.14 1.87-0.86 1.87-0.86 3.87-0.74 6.81 3 11.2 11.4 14.6 17.7 1.54 2.34 3.1 3.62 5.42 5.16-0.56 3.24-1.41 4.93-4 7h-2v2c-5.76 4.32-12.1 7.21-19 9-0.97 0.28-1.94 0.56-2.95 0.85-22.4 5.53-53.4 4.54-74-6.85-6.23-4.01-12.2-8.42-18-13-0.62-0.47-1.25-0.94-1.9-1.43-4.8-3.81-7.74-8.13-10.7-13.4-0.48-0.84-0.95-1.68-1.44-2.54-9.83-18-12.4-37.5-7.94-57.6 3.85-12.8 10.3-24.8 19-35 0.46-0.58 0.93-1.16 1.4-1.76 24.6-28 70.6-28.1 101-11.2zm-67.1 30.4c-4.66 5.47-9.89 12.4-11.2 19.5 4.31 1.59 8.23 2.39 12.8 2.8 0.65 0.06 1.3 0.12 1.97 0.18 2.14 0.19 4.27 0.38 6.4 0.57 1.49 0.13 2.98 0.26 4.47 0.4 3.11 0.28 6.22 0.55 9.33 0.82 3.99 0.35 7.98 0.71 12 1.07 3.07 0.28 6.14 0.55 9.21 0.82 1.47 0.13 2.94 0.26 4.42 0.4l6.15 0.54c1.17 0.1 2.33 0.2 3.54 0.31 2.7 0.31 2.7 0.31 4.74-0.91-0.04-9.31-2.93-17.3-9.08-24.4-9.81-9.24-19.9-11-33.1-10.8-8.85 0.47-15.2 2.44-21.7 8.68z" fill="#000100"/>
<path transform="translate(429 1216)" d="m0 0c2.87 2.66 5.57 5.45 8.21 8.35 2.63 2.96 2.63 2.96 5.7 5.21 4.04 3.27 6.42 7.58 9.03 12 0.52 0.88 1.04 1.77 1.58 2.68 11.4 19.8 14.8 38.7 9.42 61-1.09 3.17-2.45 6.04-4 9-0.36 0.78-0.72 1.57-1.09 2.37-9.31 20-25 33.1-45.2 41.4-9.47 3.23-19.7 5.13-29.7 4.26-1.46-0.12-1.46-0.12-2.94-0.25-19.8-2.35-38.8-12-52.1-26.8-0.84-0.83-1.67-1.66-2.53-2.52-13.8-13.8-20.2-31.4-21-50.7 0.76-22.7 8.73-39.9 24.6-55.8 0.51-0.63 1.03-1.25 1.57-1.9 1.43-1.1 1.43-1.1 3.35-0.98 8.05 3.42 15 11.2 21.4 17 4.93 4.49 9.96 8.75 15.2 12.9 2.35 1.9 4.61 3.87 6.86 5.9 3.18 2.86 6.43 5.61 9.75 8.31 4.39 3.56 8.71 7.19 13 10.9 0.9 0.77 0.9 0.77 1.82 1.56 3.18 2.73 6.32 5.51 9.43 8.32 3.29 2.9 6.68 4.97 10.6 7 4.36-11.5 4.33-21.7-0.51-33-2.07-4.08-4.53-7.5-7.49-11-0.9-1.21-0.9-1.21-1.81-2.44-11.2-13.1-26.9-17.2-43.2-18.6-0.17-4.68-0.33-9.36-0.49-14-0.05-1.59-0.11-3.18-0.16-4.78-0.08-2.28-0.16-4.57-0.23-6.86-0.03-0.71-0.06-1.43-0.09-2.17-0.05-1.71-0.05-3.43-0.03-5.14 13-13 51 10.3 61.1 18.7zm-83.1 52.3c-4.74 9.76-6.38 19.2-3.5 29.8 4.32 12.3 13.6 20.8 25.2 26.3 7.68 3.16 16.8 3.23 24.6 0.32 4.71-2.14 8.73-5.05 12.7-8.37-2.9-3.09-5.87-5.71-9.25-8.25-3.32-2.53-6.24-5.18-9.13-8.19-4.01-4.13-8.35-7.36-13.1-10.7-2.93-2.17-5.38-4.55-7.89-7.18-2.45-2.52-5.09-4.79-7.76-7.08-1.22-1.04-2.43-2.11-3.61-3.19-3.12-2.79-3.94-3.45-8.3-3.45z" fill="#000100"/>
<path transform="translate(346 317)" d="m0 0c1.53 1.28 3.05 2.57 4.56 3.88 1.15 0.96 2.3 1.93 3.45 2.89 3.2 2.69 6.38 5.39 9.55 8.11-8.09 10.9-16.5 21.6-25.4 31.9-4.74 5.55-9.31 11.2-13.9 16.9-3.55 4.36-7.12 8.66-10.9 12.8-2.53 2.79-4.65 5.55-6.63 8.75-3.24 5.11-7.51 9.04-11.9 13.1-2.16 2.33-2.97 3.4-3.3 6.49 11.3 4.16 20 4.89 31.4 0.43 14.8-6.99 23.9-19.4 29.4-34.2 1.9-6.19 2.36-12.8 3.11-19.2 4.68-0.31 9.36-0.62 14-0.91 1.59-0.11 3.18-0.21 4.78-0.32 2.28-0.15 4.57-0.29 6.86-0.44 0.71-0.04 1.43-0.09 2.17-0.14 1.71-0.11 3.43-0.16 5.14-0.19 1.75 1.74 1.18 4.12 1.19 6.5-0.24 23.8-7.84 41.4-23.2 59.5-0.61 0.74-1.22 1.49-1.85 2.25-11.5 13.5-28 24-45.2 28.8-0.75 0.22-1.51 0.44-2.29 0.67-19.6 4.85-37.8-0.08-54.7-10.2-9.15-5.66-16-12.3-23-20.5-0.59-0.69-1.18-1.37-1.79-2.07-10.9-13.4-14.4-33.1-13.2-49.9 3.87-27.8 17.3-47.8 39.4-65.1 21.9-15.8 60.4-16.3 82.1 0.2zm-64.4 28.9c-0.78 0.41-1.56 0.82-2.36 1.24-6.3 3.73-9.97 8.5-13.6 14.8-0.51 0.84-1.02 1.69-1.54 2.56-4.41 8.3-5.03 17.2-2.72 26.3 2.03 5.43 5 10.3 8.26 15.1 4.52-3.42 7.75-7.08 11.1-11.6 2.49-3.21 5.21-6.18 7.97-9.17 2-2.26 2-2.26 3.76-5.11 2.39-3.5 5.08-6.4 8.01-9.44 4.1-4.34 7.72-8.64 10.9-13.8 1.26-1.94 2.64-3.59 4.19-5.31 0.68-0.87 1.36-1.73 2.06-2.62-0.66-3.11-0.66-3.11-3.01-4.17-11.2-4.28-22.3-4.64-33 1.17z" fill="#000100"/>
<path transform="translate(1326,1014)" d="m0 0c4.34 0.93 7.75 3.09 11.5 5.38 6.46 3.87 13 7.55 19.6 11.1 6.72 3.64 13.1 7.53 19.4 11.9 5.14 3.5 10.5 6.34 16 9.16 5.25 2.72 10.2 5.76 15.1 9.03 5.63 3.73 11.3 7.07 17.3 10.2 9.28 4.83 18.1 10.5 27 16 2.05 1.28 2.05 1.28 4.1 2.27-0.6 4.91-2.74 8.72-5.06 13-0.4 0.74-0.8 1.49-1.22 2.25-2.59 4.78-5.25 9.52-8.03 14.2-0.62 1.03-1.23 2.06-1.87 3.12-1.82 2.44-1.82 2.44-5.82 4.44l-13-9c0.99 3.46 0.99 3.46 2 7 2.51 21.8-4.93 41.7-18 59-2.47 2.63-5.11 4.83-8 7-0.76 0.6-1.52 1.19-2.31 1.8-11.8 8.8-25.4 13.5-40.2 11.6-12.3-2.37-23-7.45-33.8-13.5-1.44-0.79-2.88-1.56-4.33-2.32-7.44-3.9-14.5-8.41-21.6-12.9-5.5-3.43-11-6.47-16.9-9.23-4.32-2.28-8.26-5.06-12.3-7.83-5.62-3.81-11.4-6.86-17.6-9.69 3.95-8.27 7.84-16.2 13.3-23.5 3.09-4.53 5.36-9.51 7.68-14.5 4.7 0.55 8.19 2.67 12.1 5.12 0.67 0.41 1.33 0.82 2.01 1.23 3.87 2.37 7.69 4.81 11.5 7.27 3.77 2.43 7.6 4.61 11.6 6.69 5.14 2.72 10.1 5.65 15 8.75 0.68 0.43 1.37 0.87 2.08 1.31 2.82 1.77 5.62 3.56 8.41 5.39 4.93 3.16 9.99 5.46 15.4 7.55 0.66 0.26 1.32 0.51 2 0.77 8.45 3.1 15.5 3.57 23.9-0.08 8.14-4.22 12.6-9.49 16-18 2.92-9.5 3.52-20.2-1.15-29.2-6.57-10.6-15.7-16-26.5-21.8-5.28-2.82-10.1-5.83-15-9.4-3.59-2.39-7.44-4.19-11.3-6.05-4.24-2.07-8.09-4.39-12-7.08-3.93-2.69-8.06-5.06-12.2-7.48-1.67-1-3.33-2-5-3 0.75-4.06 2.61-7.59 4.44-11.2 0.34-0.69 0.69-1.39 1.05-2.1 3.44-6.76 7.41-13.1 11.5-19.5 1.92-2.89 1.92-2.89 3-5.13z" fill="#000100"/>
<path transform="translate(183,418)" d="m0 0h2c1.27 1.51 1.27 1.51 2.81 3.69 3.23 4.3 6.79 8.01 10.6 11.8 4.56 4.46 8.64 9.02 12.5 14.1 3.2 3.9 6.83 7.34 10.4 10.9 2.82 2.81 5.42 5.75 8 8.77 1.64 1.86 3.34 3.6 5.11 5.33 2.94 2.89 5.64 5.92 8.32 9.04 1.81 2.04 3.64 4.03 5.51 6.01 0.59 0.63 1.19 1.26 1.8 1.91 1.19 1.27 2.4 2.53 3.6 3.79 4.27 4.53 4.27 4.53 4.27 6.75h2c1.45 1.46 1.45 1.46 3.13 3.48 2.54 2.99 5.13 5.89 7.83 8.73 0.99 1.03 0.99 1.03 1.99 2.08 1.35 1.42 2.7 2.83 4.06 4.24 0.64 0.68 1.29 1.36 1.95 2.06 0.88 0.91 0.88 0.91 1.77 1.84 1.27 1.57 1.27 1.57 1.27 3.57h2v2c0.59 0.26 1.18 0.51 1.79 0.78 2.43 1.34 3.86 2.66 5.65 4.78 0.55 0.62 1.11 1.24 1.68 1.88 1.46 4.24-0.47 7.56-2.12 11.6-0.33 0.83-0.66 1.66-1 2.52-1.08 2.63-2.19 5.24-3.31 7.86-0.55 1.3-0.55 1.3-1.11 2.63-2.03 4.74-4.24 9.3-6.73 13.8-0.54 0.98-1.07 1.95-1.62 2.95-0.41 0.73-0.81 1.47-1.23 2.22-20.4 0.12-40.7-0.16-61-0.81-3.64-0.11-7.29-0.22-10.9-0.33-6.85-0.21-13.7-0.43-20.5-0.64-7.82-0.25-15.6-0.49-23.4-0.73-16-0.49-32-0.99-48.1-1.49 0.77-4.28 2.13-7.67 4.05-11.6 0.31-0.62 0.61-1.24 0.92-1.87 0.96-1.98 1.93-3.95 2.91-5.92 0.96-1.96 1.92-3.92 2.88-5.88 0.87-1.79 1.75-3.58 2.63-5.36 1.12-2.36 2.19-4.7 3.21-7.09 0.46-1.09 0.92-2.17 1.4-3.29 13.1-0.14 26.1 0.29 39.2 0.88 2.09 0.08 4.17 0.17 6.25 0.26 5.43 0.24 10.8 0.48 16.3 0.71 5.56 0.25 11.1 0.49 16.7 0.73 10.9 0.47 21.7 0.94 32.6 1.42-1.1-1.26-2.2-2.53-3.31-3.79-0.61-0.71-1.22-1.41-1.86-2.13-1.61-1.83-3.25-3.63-4.92-5.42-0.47-0.5-0.95-1.01-1.44-1.53-0.96-1.03-1.93-2.06-2.9-3.08-3.57-3.83-3.57-3.83-3.57-6.05h-2c-5.35-4.87-10-10.5-14.7-16-3.28-3.82-6.68-7.41-10.3-10.9-3.03-2.99-5.78-5.95-8.31-9.37-3.59-4.81-7.78-8.92-12.1-13.1-6.73-6.55-6.73-6.55-8.62-9.6 0.05-5.31 2.55-10.2 4.62-15 0.36-0.83 0.71-1.66 1.08-2.51 3.15-7.31 6.62-14.4 10.3-21.5z" fill="#000100"/>
<path transform="translate(1470,540)" d="m0 0c1 3.29 2 6.58 3 9.88 0.29 0.93 0.57 1.87 0.87 2.83 0.27 0.9 0.54 1.8 0.82 2.72 0.25 0.83 0.5 1.65 0.76 2.51 0.55 2.06 0.55 2.06 0.55 4.06 0.88-0.27 1.75-0.53 2.66-0.81 3.27-1 6.55-1.99 9.83-2.98 1.41-0.43 2.83-0.86 4.24-1.29 2.04-0.62 4.08-1.24 6.12-1.85 1.23-0.38 2.45-0.75 3.71-1.13 3.15-0.86 6.22-1.47 9.44-1.94 1.23 3.91 2.46 7.82 3.68 11.7 0.42 1.33 0.83 2.65 1.25 3.97 2.63 8.37 5.06 16.8 7.07 25.3-7.25 2.8-14.6 5.24-22 7.69-4.29 1.42-8.58 2.84-13 4.31l10 35c-6.3 2.52-12.3 4.87-18.8 6.75-0.73 0.22-1.45 0.44-2.2 0.67-3.79 1.11-7.05 1.68-11 1.58-0.23-0.74-0.45-1.48-0.69-2.24l-3.12-10.2c-0.36-1.16-0.72-2.33-1.08-3.53-1.96-6.37-3.97-12.7-6.11-19-4.24 0.62-8.18 1.58-12.3 2.89-1.19 0.38-2.39 0.76-3.62 1.14-0.93 0.3-0.93 0.3-1.88 0.61-9.26 2.95-18.5 5.82-27.9 8.24-0.76 0.19-1.51 0.39-2.3 0.59-3.04 0.78-6.08 1.55-9.14 2.28-6.46 1.69-11.5 4.25-15 10.1-2.08 4.75-2.5 9.15-0.87 14.1 1.45 3.07 2.93 6.1 4.56 9.08 1.81 3.35 2.44 5 2.44 8.92-2.13 1.98-4.17 3.67-6.5 5.38-0.64 0.48-1.28 0.96-1.94 1.46-1.27 0.95-2.55 1.91-3.82 2.86-1.47 1.09-2.89 2.23-4.31 3.39-0.68 0.55-1.36 1.09-2.05 1.66-0.57 0.47-1.14 0.94-1.73 1.42-1.65 0.83-1.65 0.83-3.62 0.71-7.63-3.31-13-13.5-16-20.9-6.04-18.4-8.85-37.6-0.75-55.8 8.2-13.4 22.2-20.7 36.9-24.4 10.4-2.76 20.7-5.82 30.9-9.06 0.7-0.22 1.39-0.44 2.1-0.67 0.68-0.21 1.36-0.42 2.05-0.64 0.67-0.21 1.33-0.42 2.01-0.64 1.79-0.56 3.59-1.14 5.38-1.71 1.11-0.34 2.21-0.68 3.34-1.03 1.19-0.37 2.38-0.75 3.61-1.13 2.99-0.77 5.33-1.06 8.39-0.87-0.18-0.66-0.36-1.31-0.55-1.99-0.82-2.96-1.63-5.92-2.45-8.89-0.29-1.03-0.57-2.06-0.87-3.12-0.4-1.48-0.4-1.48-0.82-2.99-0.25-0.91-0.5-1.82-0.76-2.76-0.55-2.25-0.55-2.25-0.55-4.25 0.99-0.24 1.99-0.48 3.01-0.73 8.15-2.01 16.2-4.15 24.3-6.54 2.7-0.73 2.7-0.73 4.7-0.73z" fill="#000100"/>
<path transform="translate(327,179)" d="m0 0c1.98 1.89 3.36 3.55 4.9 5.87 2.04 3.04 4.21 5.54 6.72 8.19 4.14 4.48 7.89 9.1 11.6 14 2.98 3.94 6.1 7.73 9.32 11.5 4.08 4.76 7.95 9.63 11.7 14.6 3.4 4.47 7 8.74 10.7 13 3.21 3.76 6.25 7.62 9.23 11.6 3.7 4.89 7.64 9.46 11.8 14 2.64 2.96 5.03 6.07 7.43 9.22 1.55 1.98 3.17 3.87 4.85 5.74 3.93 4.43 7.58 9.05 11.3 13.7 2.98 3.76 5.99 7.49 9.04 11.2 4.11 5 8.14 10 12.2 15.1 0.48 0.6 0.96 1.2 1.45 1.81 0.46 0.59 0.93 1.18 1.41 1.79 1.03 1.25 2.11 2.47 3.21 3.66 0.56 0.6 1.12 1.21 1.7 1.83 0.51 0.54 1.03 1.08 1.56 1.63 1.01 1.67 1.01 1.67 0.78 3.76-1.06 2.63-2.61 3.88-4.77 5.72-0.82 0.7-1.63 1.4-2.47 2.12-3.02 2.47-6.09 4.84-9.2 7.2-3.51 2.82-6.73 5.93-9.97 9.05-2.54 1.96-4.21 2.47-7.36 2.82-0.43-0.54-0.85-1.07-1.29-1.62-6.52-8.17-13.1-16.3-19.7-24.4-0.45-0.55-0.9-1.11-1.37-1.68-5.21-6.41-5.21-6.41-10.6-12.7-3.26-3.76-6.23-7.75-9.24-11.7-2.53-3.3-5.14-6.45-7.94-9.52-2.91-3.19-5.45-6.49-7.94-10-2.32-3.27-4.6-6.19-7.5-8.94-4.16-3.95-7.49-8.54-10.4-13.4v-2c-0.99-0.33-1.98-0.66-3-1-1.98-2.15-1.98-2.15-4.19-4.94-0.8-1-1.6-2-2.42-3.03-0.79-1-1.58-2-2.39-3.03-1.31-1.65-2.62-3.29-3.94-4.94-0.64-0.8-1.27-1.6-1.93-2.43-1.6-1.97-3.21-3.92-4.85-5.85-0.46-0.55-0.92-1.09-1.4-1.65-1.32-1.56-2.65-3.11-3.97-4.66-1.91-2.47-1.91-2.47-1.91-4.47h-2c-1.26-1.39-1.26-1.39-2.69-3.33-0.53-0.71-1.06-1.43-1.6-2.16-0.57-0.77-1.13-1.53-1.71-2.32-5.32-7.11-10.9-13.8-17-20.2 1.45-3.5 3.2-5.22 6.19-7.5 0.88-0.69 1.77-1.37 2.69-2.08 1.03-0.8 2.06-1.6 3.12-2.42 1.25-1 2.5-2.01 3.75-3.01 0.98-0.79 0.98-0.79 1.97-1.59 1.28-1.03 2.56-2.07 3.84-3.1 4.05-3.25 8.19-6.31 12.4-9.3z" fill="#000100"/>
<path transform="translate(981,98)" d="m0 0c8.47 2.21 16.8 4.77 25.1 7.5 1.85 0.59 1.85 0.59 3.73 1.18 1.17 0.39 2.33 0.77 3.53 1.16 1.59 0.52 1.59 0.52 3.2 1.04 0.8 0.37 1.6 0.74 2.42 1.12 1.36 4.07-0.05 6.81-1.44 10.7-0.24 0.7-0.48 1.4-0.73 2.12-0.6 1.74-1.22 3.46-1.83 5.19 3.58-1.15 6.99-2.39 10.4-4 14.6-6.46 29.8-4.83 44.6 0 1.55 3.11 0.03 5.74-1 8.88-0.22 0.69-0.44 1.38-0.67 2.09-2.94 9.07-6.13 18-9.33 27-4.07-0.75-7.82-1.91-11.7-3.28-9.14-2.88-18.7-2.82-27.6 0.82-11.3 6.16-17.1 16.1-21.5 27.7-0.34 0.9-0.68 1.79-1.03 2.72-3.17 8.62-5.63 17.4-8.07 26.2-7.94 28.5-7.94 28.5-13.1 38.8-1.33-0.33-2.67-0.67-4-1-0.77-0.19-1.55-0.39-2.34-0.58-26.4-6.63-26.4-6.63-34.7-10.4-1-2-1-2-0.11-4.98 0.47-1.29 0.95-2.57 1.43-3.84 0.52-1.43 1.04-2.85 1.55-4.28 0.28-0.75 0.56-1.5 0.84-2.27 4-10.9 7.85-21.7 10.6-33 2.08-8.5 4.66-16.6 7.64-24.9 2.65-7.35 5.13-14.8 7.61-22.2 0.36-1.07 0.36-1.07 0.73-2.16 3.18-9.51 6.12-19 8.77-28.7 1.8-6.49 4.14-12.6 6.94-18.7z" fill="#000100"/>
<path transform="translate(888 1353)" d="m0 0c3.33 1.99 5.93 4.39 8.5 7.31 0.68 0.72 1.36 1.45 2.06 2.19 4.55 6.6 7.19 13.8 5.94 21.8-3.06 9.04-8.08 14.9-16 20-6.79 2.89-15.1 3.19-22.2 0.94-7.34-3.25-12.7-8.78-16-16.1-2.36-8-2-16.6 1.97-24 7.46-12 22.1-18.4 35.7-12.2z" fill="#000100"/>
<path transform="translate(1071 237)" d="m0 0c7.67 4.09 14.6 10.4 17.4 18.9 1.51 9.31-0.9 17-6.06 24.8-3.86 5.01-8.64 7.42-14.6 9.12-9.92 0.95-17.5 0.1-25.2-6.25-5.85-5.45-9.3-12-10.1-20.1 0.69-8.12 3.59-14.8 9.31-20.7 8.82-6.93 18.3-9.74 29.3-5.82z" fill="#000100"/>
</svg>
